<svg width="83" height="42" viewBox="0 0 83 42" fill="none" xmlns="http://www.w3.org/2000/svg">
<g clip-path="url(#clip0)">
<path d="M42.2022 11.1063C43.4136 11.1063 44.2208 10.2992 44.2208 9.08772C44.2208 7.87628 43.4136 7.0691 42.2022 7.0691C40.9907 7.0691 40.1835 7.87628 40.1835 9.08772C40.1835 10.2992 40.9907 11.1063 42.2022 11.1063ZM81.5772 1.81778C81.9814 1.81778 82.1835 2.01991 82.1835 2.42416C82.1835 4.03985 78.7514 8.07841 75.52 10.5013C76.9335 7.0691 79.9628 1.8191 81.5772 1.8191V1.81778ZM63.8072 11.5093C64.2115 11.5093 64.8165 11.9135 64.8165 12.5186L63.6051 16.355C62.7979 17.1622 62.1915 17.9707 61.3844 17.9707C60.778 17.9707 60.375 17.3643 60.375 16.5572C60.5772 14.5385 62.5958 11.5093 63.8072 11.5093ZM51.2886 13.5292C51.6929 13.5292 52.0958 13.7313 52.0958 14.3364C52.0958 15.75 50.4801 17.5678 48.6636 17.5678H48.2594L49.2687 14.5385C49.6729 13.9322 50.6822 13.5292 51.2873 13.5292H51.2886ZM30.2886 17.1635C31.0958 17.1635 31.2979 17.9707 31.2979 18.375L30.2886 21.8072C29.2793 22.8165 28.6729 23.4228 28.0679 23.4228C27.4628 23.4228 27.2607 22.8165 27.2607 22.0093C27.0585 19.9907 28.8764 17.1635 30.2899 17.1635H30.2886ZM17.7687 25.4428C18.778 27.8657 17.3644 28.875 16.3551 29.0771C15.5479 29.0771 14.5373 28.875 14.1344 28.6728L17.7687 25.4415V25.4428ZM21.4043 -2.9297e-05C10.7022 -2.9297e-05 4.10866e-05 14.3364 4.10866e-05 21.2021C4.10866e-05 24.2313 1.61573 26.0478 4.24073 26.0478C5.04792 26.0478 6.05854 25.6436 6.46148 25.2407V25.0385C4.64367 24.6343 4.0386 23.8271 4.0386 22.0093C4.0386 13.5279 14.9429 1.21141 20.7979 1.21141C22.4136 1.21141 23.4229 2.42285 23.4229 4.6436C23.4229 9.08641 21.2022 13.3258 14.1344 20.5957C15.3458 21.4029 16.5572 23.0186 17.1636 24.4322L12.52 28.4707C13.1264 29.0771 14.9429 29.8843 16.7607 29.8843C19.5878 29.8843 24.6357 29.2779 20.5971 22.8165L23.2221 20.1915C22.6157 21.605 22.4149 22.4122 22.4149 23.2207C22.4149 25.2393 23.2221 26.25 24.4335 26.25C25.8471 26.25 27.0585 25.2407 29.0772 23.2207C29.4814 24.6343 30.2886 25.2393 31.0958 25.2393C32.5094 25.2393 33.7208 24.23 35.7394 22.2101C35.9415 23.4215 36.7487 24.2287 37.5572 24.2287C38.7687 24.2287 39.778 23.4215 42.403 20.9973L41.5958 23.4202L45.6344 22.8138L47.0479 18.5732C47.8551 21.6024 50.4801 24.4295 52.2979 24.4295C53.1051 24.4295 53.9136 23.6223 54.3165 22.2088L56.5373 18.3723C56.7394 20.1902 57.5466 20.9973 58.5559 20.9973C59.1623 20.9973 59.9695 20.5931 60.9788 19.7859L63.1995 17.9681C63.4017 19.1795 64.0067 19.9867 65.0174 19.9867C66.4309 19.9867 68.0466 18.5732 70.4695 16.1503C70.8737 17.9681 71.6809 18.5732 72.6902 18.5732C74.1038 18.5732 75.9216 16.9575 77.536 15.5439C75.1131 19.7846 63.8046 26.6503 51.8924 26.6503C50.0745 26.6503 46.036 26.246 43.8152 26.246C42.6038 26.246 41.3924 26.6503 40.9881 27.8617C40.3817 29.2753 39.9788 31.0931 38.5652 31.0931C35.3339 31.2952 31.4974 31.0931 28.4695 31.0931C15.9509 30.891 -0.607646 31.6995 -0.00127141 40.9867C-0.00127141 41.1888 -0.00127141 41.5931 0.200854 41.996C0.402979 42.1982 0.402979 41.7939 0.605104 41.3897C4.23942 34.524 25.4415 36.3418 36.1437 36.3418C38.9708 36.3418 39.778 33.7168 40.5865 31.899C41.1929 30.4854 43.0094 30.0812 46.6437 30.0812C55.3259 30.0812 71.0759 26.649 79.5572 14.129L78.75 13.5227C78.1437 14.3298 76.7314 15.5413 75.5187 15.5413C74.9123 15.5413 74.5094 15.137 74.5094 13.9256C74.5094 13.1184 74.7115 12.512 74.9136 11.7048C80.5679 7.66628 82.7886 4.63703 82.7886 2.01203C82.7886 0.800596 81.9814 -0.0065918 80.3657 -0.0065918C75.7221 -0.0065918 71.2793 10.0892 70.27 14.9362C69.6636 15.7434 68.6543 16.5519 68.2514 16.5519C67.8484 16.5519 67.645 16.3498 67.645 15.9455C67.645 15.7434 67.8471 15.1383 67.8471 14.9362L70.0679 8.47478L65.8272 9.08116L65.2208 11.0998C64.8165 10.2926 64.2115 9.4841 62.7979 9.4841C61.1822 9.4841 58.7594 10.6955 57.1437 14.1277L54.9229 19.3777C54.5187 20.5892 54.1157 20.9934 53.3072 20.9934C52.0958 20.9934 50.278 19.9841 48.8644 18.3684H49.0665C51.8937 18.3684 56.3352 15.3392 56.3352 11.907C56.3352 10.8977 55.528 10.2913 54.5174 10.2913C53.1038 10.2913 51.0852 11.3006 49.0652 12.7142L51.4881 5.44553L47.4495 6.05191L43.0067 19.379C41.9974 20.3883 41.391 20.7926 40.9881 20.7926C40.5852 20.7926 40.3817 20.5905 40.3817 20.1862C40.3817 19.782 40.9881 18.1676 40.9881 17.9655L42.8059 12.7155L38.7674 13.3218L36.5466 20.1875C35.3352 21.1968 34.7288 21.8032 34.3259 21.8032C33.9229 21.8032 33.7195 21.6011 33.7195 21.1968C33.7195 20.7926 33.9216 20.1875 34.1237 19.9854L36.3445 13.524L32.3059 14.3312L31.4987 16.5519C31.0945 15.5426 30.2873 14.7341 29.0759 14.7341C28.2687 14.7341 27.258 15.1383 26.0466 16.1477L20.1902 22.2048C19.383 21.3977 18.1716 20.5892 17.3631 19.9841C24.0267 14.532 27.4589 10.4934 27.4589 5.04128C27.661 1.20485 25.036 -0.0065918 21.4017 -0.0065918L21.4043 -2.9297e-05ZM16.5572 11.3072L12.3165 11.9135L8.27798 24.6343C7.47079 27.0572 5.65298 29.0771 3.2301 29.0771C2.62373 29.0771 1.61442 28.6728 0.605104 27.8657H0.402979C1.00935 29.2792 2.22079 30.2885 4.84579 30.2885C7.26867 30.2885 10.7022 29.0771 12.1144 24.2313L16.5572 11.3085V11.3072Z" fill="#AFBED0"/>
</g>
<defs>
<clipPath id="clip0">
<rect width="82.6875" height="42" fill="white"/>
</clipPath>
</defs>
</svg>
