<svg width="169" height="32" viewBox="0 0 169 32" fill="none" xmlns="http://www.w3.org/2000/svg">
<path d="M44.0175 19.7031C44.7162 20.4717 45.5546 21.0306 46.6027 21.4498C47.6507 21.8691 48.8385 22.0787 50.3057 22.0787C51.0044 22.0787 51.7031 22.0088 52.2621 21.9389C52.8909 21.8691 53.38 21.7293 53.869 21.5197C54.3581 21.38 54.7773 21.1704 55.1966 21.0306C55.5459 20.821 55.8952 20.6813 56.1747 20.5415L55.6856 19.4935C55.4062 19.6332 55.1267 19.773 54.8472 19.9127C54.5677 20.0525 54.2883 20.1223 53.9389 20.2621C53.5896 20.3319 53.2402 20.4717 52.821 20.4717C52.4018 20.5415 51.9127 20.5415 51.3538 20.5415C50.3057 20.5415 49.3974 20.3319 48.7686 19.9127C48.0699 19.4935 47.5808 18.9346 47.1616 18.3057C46.8123 17.607 46.5328 16.7686 46.3931 15.8603C46.2533 14.8822 46.1835 13.904 46.1835 12.7861C46.1835 11.9477 46.2533 11.0394 46.3232 10.1311C46.3931 9.22276 46.6027 8.4542 46.952 7.75551C47.3014 7.05682 47.7206 6.49786 48.3494 6.00878C48.9782 5.58957 49.8166 5.31009 50.8647 5.31009C51.8428 5.31009 52.6813 5.58956 53.38 6.07865C54.0787 6.56773 54.4979 7.40616 54.7075 8.4542H55.8254V5.03061C55.476 4.89087 55.1267 4.75114 54.7075 4.6114C54.2883 4.47166 53.869 4.40179 53.38 4.33192C52.8909 4.26205 52.4717 4.26205 51.9826 4.19218C51.5634 4.19218 51.1442 4.12231 50.7948 4.12231C49.2577 4.12231 48 4.33192 46.8821 4.75114C45.8341 5.17035 44.9258 5.79917 44.2271 6.56773C43.5284 7.33629 43.0393 8.31446 42.69 9.43236C42.3407 10.5503 42.2009 11.8778 42.2009 13.2752C42.2009 14.6027 42.3407 15.8603 42.69 16.9084C42.8996 18.0961 43.3887 19.0044 44.0175 19.7031Z" fill="#AFBED0"/>
<path d="M112.349 21.5198C113.188 21.4499 114.026 21.1704 114.655 20.8211C115.354 20.4019 115.913 19.8429 116.262 19.0744C116.681 18.3058 116.891 17.2578 116.891 15.9303C116.891 14.9521 116.751 14.1835 116.472 13.4848C116.192 12.7861 115.773 12.2971 115.144 11.808C114.515 11.3888 113.747 11.1093 112.769 10.8997C111.791 10.6901 110.603 10.6202 109.205 10.6202H107.738V6.49793C107.738 6.07871 107.808 5.79924 108.018 5.6595C108.227 5.51976 108.577 5.51976 109.135 5.51976H111.232C111.86 5.51976 112.419 5.51976 112.839 5.58963C113.258 5.6595 113.607 5.72937 113.817 5.93897C114.096 6.14858 114.306 6.42806 114.446 6.7774C114.585 7.12675 114.795 7.61583 114.935 8.24465H115.843V4.40186H103.965H102.987V4.96081C103.057 4.96081 103.127 5.03068 103.336 5.03068C103.546 5.10055 103.686 5.17042 103.756 5.24028C103.825 5.31015 103.895 5.44989 103.965 5.6595C103.965 5.86911 104.035 6.07871 104.035 6.35819V9.85164V16.2097V19.7032C104.035 19.9827 104.035 20.2621 103.965 20.4019C103.965 20.6115 103.895 20.7512 103.756 20.8211C103.686 20.891 103.546 21.0307 103.336 21.0307C103.127 21.1006 103.057 21.1006 102.987 21.1006V21.6595H109.485C110.533 21.6595 111.441 21.6595 112.349 21.5198ZM108.087 20.2621C107.948 20.1224 107.878 19.9827 107.878 19.7731C107.878 19.5634 107.808 19.284 107.808 18.9346V11.6682H109.275C110.603 11.6682 111.581 12.0176 112.14 12.7163C112.699 13.415 112.978 14.5329 112.978 16.07C112.978 17.118 112.908 17.8866 112.699 18.5154C112.489 19.1442 112.28 19.5634 111.93 19.9128C111.581 20.1923 111.232 20.4019 110.882 20.5416C110.463 20.6115 110.044 20.6813 109.625 20.6813C109.205 20.6115 108.856 20.6115 108.646 20.5416C108.437 20.4717 108.227 20.4019 108.087 20.2621Z" fill="#AFBED0"/>
<path d="M93.9739 21.1006C93.904 21.1006 93.8342 21.0307 93.6246 21.0307C93.415 20.9608 93.2752 20.891 93.2053 20.8211C93.1355 20.7512 93.0656 20.6115 92.9957 20.4019C92.9957 20.1923 92.9259 19.9827 92.9259 19.7032V14.8822H94.6726C95.5809 14.8822 96.4193 14.8123 97.2578 14.6726C98.0962 14.5329 98.7949 14.2534 99.4237 13.904C100.053 13.4848 100.542 12.9958 100.891 12.2272C101.24 11.5285 101.45 10.5503 101.45 9.36256C101.45 8.24465 101.24 7.33636 100.961 6.70753C100.611 6.07871 100.122 5.51976 99.5634 5.17042C99.0045 4.82107 98.3058 4.61146 97.5372 4.54159C96.7687 4.47172 96.0001 4.40186 95.1617 4.40186H89.2927H88.3145V4.96081C88.3844 4.96081 88.4543 5.03068 88.6639 5.03068C88.8735 5.10055 89.0132 5.17042 89.0831 5.24028C89.1529 5.31015 89.2228 5.44989 89.2927 5.6595C89.2927 5.86911 89.3626 6.07871 89.3626 6.35819V19.6333C89.3626 19.9128 89.3626 20.1923 89.2927 20.332C89.2927 20.5416 89.2228 20.6814 89.0831 20.7512C89.0132 20.8211 88.8735 20.9608 88.6639 20.9608C88.4543 21.0307 88.3844 21.0307 88.3145 21.0307V21.5896H93.9739V21.1006ZM92.9957 6.35819C92.9957 6.21845 92.9957 6.07871 93.0656 5.93897C93.0656 5.79924 93.1355 5.72937 93.2053 5.6595C93.2752 5.58963 93.415 5.51976 93.6246 5.51976C93.8342 5.51976 94.0438 5.44989 94.3931 5.44989C94.8123 5.44989 95.2316 5.51976 95.6508 5.58963C96.07 5.72937 96.3495 5.93897 96.6988 6.21845C96.9783 6.49793 97.1879 6.91714 97.3975 7.40623C97.5372 7.89531 97.6071 8.52413 97.6071 9.22282C97.6071 10.6901 97.3975 11.808 96.9783 12.5765C96.5591 13.3451 95.7905 13.7643 94.7425 13.7643H92.9957V6.35819Z" fill="#AFBED0"/>
<path d="M86.0088 17.677H84.8909C84.7512 18.3757 84.6114 18.8648 84.4717 19.284C84.332 19.7032 84.1922 19.9827 83.9128 20.1923C83.7032 20.4019 83.3538 20.5416 82.9346 20.5416C82.5154 20.6115 81.9564 20.6115 81.1879 20.6115C80.4892 20.6115 79.9302 20.6115 79.5809 20.5416C79.1617 20.4717 78.8822 20.4019 78.6726 20.2621C78.463 20.1224 78.3232 19.9128 78.3232 19.7032C78.2534 19.4237 78.2534 19.1442 78.2534 18.725V13.2752H80.559C80.7687 13.2752 80.9783 13.2752 81.2577 13.2752C81.5372 13.2752 81.8167 13.3451 82.0962 13.3451C82.3756 13.3451 82.6551 13.415 82.9346 13.4848C83.2141 13.5547 83.4237 13.6246 83.6333 13.7643V11.5285C83.4237 11.6682 83.2141 11.7381 82.9346 11.808C82.6551 11.8778 82.3756 11.9477 82.0962 11.9477C81.8167 12.0176 81.5372 12.0176 81.2577 12.0176C80.9783 12.0176 80.7687 12.0176 80.559 12.0176H78.2534V6.28832C78.2534 5.93897 78.3232 5.6595 78.3931 5.51976C78.5328 5.38002 78.7424 5.38002 79.0918 5.38002H80.9783C81.6071 5.38002 82.166 5.38002 82.5852 5.44989C83.0045 5.51976 83.3538 5.58963 83.5634 5.79924C83.8429 6.00884 84.0525 6.28832 84.1922 6.63767C84.332 6.98701 84.5416 7.47609 84.6813 8.10492H85.5896V4.40186H74.5503H73.5721V4.96081C73.642 4.96081 73.7119 5.03068 73.9215 5.03068C74.1311 5.10055 74.2708 5.17042 74.3407 5.24028C74.4106 5.31015 74.4804 5.44989 74.5503 5.6595C74.5503 5.86911 74.6202 6.07871 74.6202 6.35819V19.6333C74.6202 19.9128 74.6202 20.1923 74.5503 20.332C74.5503 20.5416 74.4804 20.6814 74.3407 20.7512C74.2708 20.8211 74.1311 20.9608 73.9215 20.9608C73.7119 21.0307 73.642 21.0307 73.5721 21.0307V21.5896H86.0088V17.677V17.677Z" fill="#AFBED0"/>
<path d="M67.0044 21.5198C67.8429 21.4499 68.6813 21.1704 69.3101 20.8211C70.0088 20.4019 70.5678 19.8429 70.987 19.0744C71.4062 18.3058 71.6158 17.2578 71.6158 15.9303C71.6158 14.9521 71.4761 14.1835 71.1966 13.4848C70.9171 12.7861 70.4979 12.2971 69.8691 11.808C69.2403 11.3888 68.4717 11.1093 67.4935 10.8997C66.5154 10.6901 65.3276 10.6202 63.9302 10.6202H62.4629V6.49793C62.4629 6.07871 62.5328 5.79924 62.7424 5.6595C62.952 5.51976 63.3014 5.51976 63.8603 5.51976H65.9564C66.5852 5.51976 67.1442 5.51976 67.5634 5.58963C67.9826 5.6595 68.332 5.72937 68.5416 5.93897C68.821 6.14858 69.0306 6.42806 69.1704 6.7774C69.3101 7.12675 69.5197 7.61583 69.6595 8.24465H70.5678V4.40186H58.69H57.7119V4.96081C57.7817 4.96081 57.8516 5.03068 58.0612 5.03068C58.2708 5.10055 58.4105 5.17042 58.4804 5.24028C58.5503 5.31015 58.6202 5.44989 58.69 5.6595C58.69 5.86911 58.7599 6.07871 58.7599 6.35819V6.70753V9.78177V16.07V18.6551C58.7599 18.6551 58.7599 18.6551 58.7599 18.725V19.6333C58.7599 19.9128 58.7599 20.1224 58.69 20.332C58.69 20.5416 58.6201 20.6814 58.4804 20.7512C58.4105 20.8211 58.2708 20.9608 58.0612 20.9608C57.8516 21.0307 57.7817 21.0307 57.7119 21.0307V21.6595H64.2097C65.2577 21.6595 66.0961 21.6595 67.0044 21.5198ZM62.7424 20.2621C62.6027 20.1224 62.5328 19.9827 62.5328 19.7731C62.5328 19.5634 62.4629 19.284 62.4629 18.9346V11.6682H63.9302C65.2577 11.6682 66.2359 12.0176 66.7948 12.7163C67.3538 13.415 67.6333 14.5329 67.6333 16.07C67.6333 17.118 67.5634 17.8866 67.3538 18.5154C67.1442 19.1442 66.9346 19.5634 66.5852 19.9128C66.2359 20.1923 65.8865 20.4019 65.5372 20.5416C65.118 20.6115 64.6988 20.6813 64.2795 20.6813C63.8603 20.6115 63.5809 20.6115 63.3014 20.5416C63.0918 20.4717 62.8822 20.4019 62.7424 20.2621Z" fill="#AFBED0"/>
<path d="M168.734 26.5503H42.0612V28.2272H168.734V26.5503Z" fill="#AFBED0"/>
<path d="M158.603 15.1616C158.952 15.6507 159.232 16.0699 159.581 16.4891C159.86 16.9083 160.21 17.3275 160.489 17.7468C160.769 18.166 161.048 18.5852 161.398 19.0044C161.747 19.4935 162.026 19.9127 162.306 20.4018C162.585 20.821 162.795 21.3101 163.005 21.7293L168.874 21.7992C168.245 21.1703 167.686 20.5415 167.057 19.9127C166.498 19.2839 166.009 18.7249 165.66 18.3756C165.101 17.7468 164.612 17.1878 164.192 16.6987C163.703 16.1398 163.284 15.6507 162.865 15.1616C162.446 14.6725 162.026 14.1136 161.677 13.6245C161.328 13.1354 160.908 12.5066 160.559 11.9476L160.839 11.5983C161.258 11.0393 161.747 10.4804 162.306 9.78168C162.865 9.08299 163.424 8.3843 164.053 7.75548C164.681 7.05679 165.24 6.42797 165.869 5.86902C166.498 5.31006 166.987 4.89085 167.476 4.5415H163.424C163.284 4.89085 163.074 5.31006 162.795 5.79915C162.515 6.28823 162.236 6.84718 161.817 7.40614C161.467 7.96509 161.048 8.59391 160.699 9.22273C160.28 9.85155 159.93 10.4105 159.511 10.9695C159.092 11.5284 158.743 12.0874 158.393 12.5066C158.044 12.9957 157.764 13.345 157.555 13.6944C157.904 14.1834 158.253 14.6725 158.603 15.1616Z" fill="#AFBED0"/>
<path d="M158.114 21.1006C158.044 21.1006 157.974 21.0307 157.764 21.0307C157.555 20.9608 157.415 20.891 157.345 20.8211C157.275 20.7512 157.205 20.6115 157.136 20.4019C157.136 20.1923 157.066 19.9827 157.066 19.7032V6.42806C157.066 6.14858 157.066 5.86911 157.136 5.72937C157.136 5.51976 157.205 5.38002 157.345 5.31015C157.415 5.24028 157.555 5.17042 157.764 5.10055C157.974 5.03068 158.044 5.03068 158.114 5.03068V4.40186H153.432H152.454V4.96081C152.524 4.96081 152.594 5.03068 152.804 5.03068C153.013 5.10055 153.153 5.17042 153.223 5.24028C153.293 5.31015 153.363 5.44989 153.432 5.6595C153.432 5.86911 153.502 6.07871 153.502 6.35819V19.6333C153.502 19.9128 153.502 20.1923 153.432 20.332C153.432 20.5416 153.363 20.6814 153.223 20.7512C153.153 20.8211 153.013 20.9608 152.804 20.9608C152.594 21.0307 152.524 21.0307 152.454 21.0307V21.5896H158.114V21.1006Z" fill="#AFBED0"/>
<path d="M120.524 19.5632C120.734 18.585 121.153 17.1876 121.712 15.4409H127.232L128 17.6767C128.349 18.6549 128.629 19.4933 128.769 20.192C128.978 20.8907 129.118 21.3798 129.118 21.7291H133.52C133.31 21.3798 133.101 20.8907 132.821 20.3317C132.542 19.7728 132.192 18.9343 131.843 17.8863L127.86 6.56751C127.651 6.07842 127.581 5.65921 127.511 5.30986C127.441 4.96052 127.441 4.68104 127.371 4.47144H122.411V5.03039C122.48 5.03039 122.55 5.10026 122.76 5.10026C122.97 5.17013 123.109 5.24 123.179 5.30986C123.249 5.37973 123.319 5.51947 123.389 5.72908C123.389 5.86882 123.389 5.93869 123.389 6.07842C123.389 6.49764 123.319 6.91685 123.179 7.19633L120.384 14.0435C119.895 15.3011 119.406 16.419 119.057 17.2575C118.708 18.0959 118.358 18.8645 118.149 19.4234C117.869 19.9824 117.66 20.4715 117.45 20.8208C117.24 21.1701 117.101 21.4496 116.961 21.7291H120.105C120.175 21.24 120.315 20.5413 120.524 19.5632ZM124.507 7.2662L126.812 14.2531H122.061L124.507 7.2662Z" fill="#AFBED0"/>
<path d="M140.157 21.1006H140.018C139.948 21.1006 139.878 21.0307 139.668 21.0307C139.459 20.9608 139.319 20.891 139.249 20.8211C139.179 20.7512 139.109 20.6115 139.039 20.4019C139.039 20.1923 138.97 19.9827 138.97 19.7032V13.0656H145.677V19.6333C145.677 19.9128 145.677 20.1923 145.607 20.332C145.607 20.5416 145.537 20.6814 145.398 20.7512C145.328 20.8211 145.188 20.9608 144.978 20.9608C144.769 21.0307 144.699 21.0307 144.629 21.0307V21.5896H150.288V21.0307C150.219 21.0307 150.149 20.9608 149.939 20.9608C149.729 20.891 149.59 20.8211 149.52 20.7512C149.45 20.6814 149.38 20.5416 149.31 20.332C149.31 20.1224 149.24 19.9128 149.24 19.6333V16.2097V16.07V9.78177V9.7119V6.28832C149.24 6.00884 149.24 5.72937 149.31 5.58963C149.31 5.38002 149.38 5.24028 149.52 5.17042C149.59 5.10055 149.729 5.03068 149.939 4.96081C150.149 4.89094 150.219 4.89094 150.288 4.89094V4.40186H145.607H144.769V4.96081C144.839 4.96081 144.908 5.03068 145.118 5.03068C145.328 5.10055 145.467 5.17042 145.537 5.24028C145.607 5.31015 145.677 5.44989 145.747 5.6595C145.747 5.86911 145.817 6.07871 145.817 6.35819V11.8778H139.109V6.35819C139.109 6.07871 139.109 5.79924 139.179 5.6595C139.179 5.44989 139.249 5.31015 139.389 5.24028C139.459 5.17042 139.598 5.10055 139.808 5.03068C140.018 4.96081 140.087 4.96081 140.157 4.96081V4.40186H135.476H134.498V4.96081C134.568 4.96081 134.638 5.03068 134.847 5.03068C135.057 5.10055 135.197 5.17042 135.267 5.24028C135.336 5.31015 135.406 5.44989 135.476 5.6595C135.476 5.86911 135.546 6.07871 135.546 6.35819V6.7774V18.725V18.7949V19.7032C135.546 19.9827 135.546 20.1923 135.476 20.4019C135.476 20.6115 135.406 20.7512 135.267 20.8211C135.197 20.891 135.057 21.0307 134.847 21.0307C134.638 21.1006 134.568 21.1006 134.498 21.1006V21.6595H140.157V21.1006V21.1006Z" fill="#AFBED0"/>
<path d="M30.5328 6.21847C30.1834 5.72939 29.8341 5.2403 29.4847 4.75122L10.131 15.8604L0.768561 10.4805C0.558953 11.1093 0.419215 11.6683 0.349346 12.2971L10.2009 17.9565L30.5328 6.21847Z" fill="#AFBED0"/>
<path d="M10.131 20.0523L0.0698691 14.2531C-5.20565e-09 14.6025 0 15.0217 0 15.3711C0 24.5239 7.40612 31.9999 16.6288 31.9999C25.7817 31.9999 33.2577 24.5938 33.2577 15.3711C33.2577 12.6462 32.6289 10.061 31.4411 7.8252L10.131 20.0523Z" fill="#AFBED0"/>
<path d="M28.1572 3.35383C27.6682 2.86475 27.1791 2.51541 26.69 2.09619L10.131 11.6683L2.16594 7.12676C1.88647 7.61585 1.60699 8.1748 1.32751 8.73375L10.0611 13.7643L28.1572 3.35383Z" fill="#AFBED0"/>
<path d="M25.0131 0.978167C24.3843 0.628822 23.7555 0.279476 23.0568 0L10.131 7.47599L4.33188 4.19214C3.91267 4.61136 3.56332 5.10044 3.14411 5.58953L10.0611 9.57206L25.0131 0.978167Z" fill="#AFBED0"/>
</svg>
