<svg width="115" height="33" viewBox="0 0 115 33" fill="none" xmlns="http://www.w3.org/2000/svg">
<path d="M21.4473 11.17C21.4126 11.3361 21.3579 11.4974 21.2845 11.6504L19.3466 16.2835L19.1919 10.9827C19.1894 10.8698 19.1636 10.7587 19.1159 10.6564C19.0683 10.5541 18.9998 10.4628 18.915 10.3883C18.8322 10.3102 18.7327 10.2521 18.6241 10.2182C18.5154 10.1844 18.4005 10.1757 18.288 10.1929H12.3277C12.4439 10.1999 12.5568 10.2339 12.6576 10.2922C12.7583 10.3505 12.8441 10.4314 12.9081 10.5286C12.9721 10.6258 13.0126 10.7366 13.0263 10.8522C13.0401 10.9677 13.0267 11.0849 12.9873 11.1944C12.9449 11.3799 12.8821 11.5601 12.8 11.7318L12.4824 12.4972L7.73537 24.1573C7.65907 24.3087 7.61999 24.4762 7.62137 24.6458C7.62232 24.7488 7.64706 24.8501 7.69367 24.9419C7.74029 25.0337 7.8075 25.1135 7.89007 25.1751C8.09828 25.3312 8.35486 25.4091 8.61475 25.3949H13.2641C13.1449 25.3953 13.0273 25.3676 12.9209 25.314C12.8144 25.2603 12.7222 25.1824 12.6515 25.0863C12.5809 24.9903 12.534 24.879 12.5145 24.7614C12.495 24.6438 12.5036 24.5233 12.5394 24.4097C12.5751 24.252 12.6213 24.097 12.6779 23.9455L14.7542 18.7425L14.8845 25.4031H20.112L22.6687 18.6936L22.628 24.5969C22.6264 24.7098 22.6471 24.8219 22.6891 24.9267C22.731 25.0315 22.7932 25.127 22.8723 25.2076C23.0252 25.3551 23.2298 25.4369 23.4422 25.4356H29.4921C29.3131 25.4319 29.1402 25.3692 29.0004 25.2574C28.8606 25.1455 28.7615 24.9906 28.7186 24.8168C28.6756 24.6464 28.6537 24.4714 28.6534 24.2957C28.6534 24.2957 28.6534 24.2957 28.6534 24.255L27.9287 11.3491C27.9545 11.0625 27.8827 10.7756 27.7252 10.5349C27.646 10.4275 27.5387 10.3441 27.4152 10.2938C27.2916 10.2435 27.1566 10.2283 27.0249 10.2499H20.9751C21.156 10.321 21.3055 10.4544 21.3966 10.6262C21.4877 10.7979 21.5144 10.9966 21.4718 11.1863L21.4473 11.17ZM25.9664 2.72621C25.9564 2.80728 25.9286 2.88514 25.885 2.9542C25.8419 3.02805 25.7836 3.09189 25.714 3.14148C25.6471 3.18867 25.5728 3.22444 25.4941 3.24733C25.4185 3.25802 25.3418 3.25802 25.2662 3.24733H24.574L24.8102 2.22952H25.4779C25.6006 2.22662 25.7217 2.25761 25.828 2.31908C25.8799 2.35625 25.9204 2.40722 25.9449 2.46623C25.9694 2.52523 25.9768 2.5899 25.9664 2.65292V2.72621ZM27.2611 3.27175C27.3878 3.01856 27.4573 2.74057 27.4646 2.45751C27.4874 2.26304 27.467 2.06596 27.4051 1.88022C27.3432 1.69448 27.2412 1.52463 27.1064 1.3827C26.7683 1.09998 26.3322 0.962414 25.8931 0.999998H23.5807L22.343 6.32519H23.8494L24.2565 4.48498H25.0707C25.3856 4.48986 25.6992 4.4431 25.999 4.34656C26.2637 4.26081 26.5096 4.1254 26.7237 3.94758C26.9265 3.77633 27.0927 3.56583 27.2122 3.32875L27.2611 3.27175ZM37.716 19.3857L38.799 16.943L38.9781 19.3857H37.7242H37.716ZM35.4117 24.4178C35.4343 24.3403 35.4615 24.2641 35.4931 24.1898L36.4132 22.3415H38.97L39.1654 24.5888C39.1644 24.7145 39.1926 24.8388 39.2477 24.9518C39.3028 25.0648 39.3833 25.1635 39.4829 25.2402C39.6668 25.3863 39.901 25.4537 40.1343 25.4275H46.0214C45.8448 25.4342 45.6718 25.3769 45.5342 25.2662C45.3966 25.1555 45.3035 24.9988 45.2723 24.8249C45.2071 24.6295 44.1649 11.2921 44.1649 11.2921C44.2091 11.1514 44.2143 11.0014 44.1799 10.8579C44.1454 10.7145 44.0727 10.5832 43.9695 10.4779C43.7008 10.2254 43.7496 10.2336 42.9517 10.2336H36.4377C36.5598 10.2357 36.6794 10.2683 36.7857 10.3285C36.8919 10.3886 36.9815 10.4743 37.0462 10.5779C37.111 10.6815 37.1488 10.7995 37.1563 10.9214C37.1637 11.0433 37.1406 11.1651 37.0891 11.2758C37.0321 11.5038 35.6885 14.0036 35.6885 14.0036L30.3796 24.2875C30.3051 24.4132 30.2657 24.5567 30.2656 24.7028C30.2766 24.8123 30.3096 24.9185 30.3628 25.0149C30.4159 25.1113 30.488 25.1959 30.5748 25.2636C30.6616 25.3314 30.7611 25.3808 30.8676 25.409C30.974 25.4371 31.085 25.4434 31.1939 25.4275H35.9572C35.7511 25.3637 35.5787 25.2206 35.4779 25.0298C35.3771 24.8389 35.3563 24.6159 35.4198 24.4097L35.4117 24.4178ZM30.86 2.73435C30.8721 2.83714 30.8721 2.94098 30.86 3.04377L30.5344 4.39542C30.4885 4.60559 30.3968 4.80302 30.2656 4.97354C30.2004 5.0486 30.1187 5.10752 30.0269 5.14566C29.935 5.18381 29.8356 5.20014 29.7364 5.19338C29.6295 5.19741 29.5232 5.17504 29.427 5.12824C29.3528 5.08773 29.293 5.02512 29.256 4.94911C29.2173 4.87065 29.1978 4.78415 29.199 4.69669C29.1866 4.59392 29.1866 4.49005 29.199 4.38728L29.5247 3.03562C29.5509 2.93223 29.5863 2.83141 29.6305 2.73435C29.672 2.6401 29.7268 2.55233 29.7934 2.47379C29.8583 2.39568 29.9387 2.33191 30.0295 2.28651C30.1289 2.24055 30.2376 2.21825 30.3471 2.22137C30.4514 2.2166 30.5553 2.23905 30.6483 2.28651C30.7233 2.32611 30.7833 2.38898 30.8193 2.46565C30.8542 2.54795 30.8709 2.63685 30.8682 2.72621L30.86 2.73435ZM32.285 3.21476C32.3612 2.92539 32.3806 2.62397 32.342 2.32723C32.3113 2.0695 32.2121 1.82472 32.0545 1.61846C31.897 1.41221 31.6869 1.25205 31.4463 1.15471C31.1546 1.03515 30.8414 0.976945 30.5262 0.983716C30.1617 0.973553 29.7988 1.03725 29.4595 1.17099C29.1843 1.28555 28.9351 1.45449 28.7267 1.66768C28.529 1.87435 28.3692 2.11412 28.2545 2.37608C28.1367 2.63817 28.044 2.9108 27.9776 3.19033L27.7415 4.18372C27.6776 4.4501 27.6556 4.72481 27.6763 4.99797C27.6963 5.25228 27.7834 5.49673 27.9287 5.70636C28.084 5.9218 28.2952 6.09074 28.5394 6.19491C28.862 6.32653 29.2091 6.3876 29.5572 6.37404C29.9117 6.38378 30.2649 6.32859 30.5995 6.2112C30.8661 6.11275 31.1079 5.95711 31.3079 5.75522C31.5023 5.55236 31.657 5.31483 31.7639 5.05496C31.8838 4.76493 31.9792 4.46531 32.0489 4.15929L32.285 3.21476ZM37.0891 2.71806C37.1349 2.60085 37.1624 2.47726 37.1705 2.35166C37.185 2.15222 37.1456 1.95254 37.0565 1.77354C36.9698 1.60748 36.844 1.46497 36.6901 1.35827C36.5151 1.23833 36.3189 1.15267 36.112 1.10585C35.869 1.04987 35.6203 1.02253 35.371 1.02442C34.9405 1.01589 34.5139 1.1079 34.1252 1.29313C33.7641 1.475 33.4516 1.74015 33.2132 2.06667L34.2229 2.75878C34.3387 2.59659 34.4925 2.4652 34.6707 2.37608C34.8413 2.28566 35.0314 2.23816 35.2244 2.23766C35.5718 2.23766 35.7374 2.37065 35.7211 2.63664C35.7211 2.72602 35.6957 2.81355 35.6478 2.88906C35.6034 2.95517 35.545 3.01076 35.4768 3.05191C35.4058 3.09309 35.3289 3.12329 35.2489 3.14148C35.1677 3.15113 35.0857 3.15113 35.0046 3.14148H34.4997L34.2718 4.12672H34.7684C34.8887 4.12315 35.0074 4.15425 35.1104 4.21629C35.1589 4.25054 35.1968 4.29768 35.2198 4.35237C35.2428 4.40705 35.2501 4.4671 35.2407 4.5257C35.2377 4.62236 35.2126 4.71704 35.1674 4.80254C35.1248 4.8813 35.0667 4.95056 34.9964 5.0061C34.9239 5.06449 34.841 5.10869 34.7522 5.13639C34.6598 5.16457 34.5637 5.1783 34.4672 5.1771C34.2896 5.18637 34.1139 5.13726 33.9669 5.03728C33.8198 4.9373 33.7096 4.79195 33.6529 4.62341L32.4234 5.2341C32.4608 5.42436 32.5479 5.60134 32.6758 5.74707C32.8059 5.89206 32.9602 6.0133 33.1318 6.10534C33.3159 6.20392 33.5134 6.27522 33.7181 6.31705C33.9404 6.36224 34.167 6.38408 34.3939 6.38219C34.6682 6.38118 34.9414 6.34839 35.2081 6.28447C35.4716 6.22219 35.7223 6.11475 35.9491 5.96692C36.1649 5.82868 36.3483 5.64535 36.4865 5.42952C36.6363 5.18436 36.7152 4.90253 36.7145 4.61527C36.7264 4.52065 36.7264 4.4249 36.7145 4.33028C36.6948 4.23019 36.6591 4.13395 36.6086 4.04529C36.555 3.95304 36.4861 3.87046 36.4051 3.80102C36.3132 3.72366 36.2085 3.66302 36.0957 3.62188V3.65445C36.4191 3.56136 36.7044 3.36737 36.9099 3.10076C36.9959 2.98663 37.0645 2.86041 37.1135 2.72621L37.0891 2.71806ZM41.5593 6.39848L42.7969 1.07328H41.3069L40.8427 3.07634H39.5237L39.9878 1.07328H38.4814L37.2438 6.39848H38.7501L39.2224 4.35471H40.5415L40.0692 6.39848H41.5593V6.39848ZM53.0891 24.5644C53.0483 24.4667 53.8056 21.3481 53.8056 21.3481L55.5399 13.7837H58.5852C58.9071 13.7902 59.222 13.69 59.4809 13.4987C59.7361 13.3108 59.913 13.0354 59.9776 12.7252L60.5476 10.2824H49.3272C49.5122 10.3163 49.6775 10.4193 49.7894 10.5705C49.9013 10.7217 49.9514 10.9098 49.9298 11.0967C49.9298 11.2025 46.8519 24.3445 46.8519 24.3445C46.8275 24.4597 46.8139 24.5769 46.8112 24.6947C46.8132 24.8969 46.8952 25.0901 47.0392 25.2321C47.1831 25.3646 47.3658 25.4474 47.5603 25.4682H53.83C53.7242 25.4722 53.6187 25.4535 53.5208 25.4133C53.4228 25.3731 53.3346 25.3124 53.262 25.2353C53.1895 25.1581 53.1343 25.0663 53.1003 24.966C53.0662 24.8657 53.0541 24.7593 53.0646 24.6539L53.0891 24.5644ZM65.3924 24.6539C65.3924 24.6539 65.4494 24.2712 65.4494 24.2387L66.0682 21.6249L66.7277 18.7751H68.2911L66.9476 24.426C66.9289 24.5583 66.9289 24.6926 66.9476 24.8249C66.9692 25.0049 67.0554 25.171 67.1902 25.2923C67.325 25.4135 67.4991 25.4818 67.6804 25.4845H73.8117C73.6284 25.4471 73.4655 25.3433 73.3542 25.1929C73.243 25.0426 73.1913 24.8564 73.2092 24.6702C73.2092 24.6702 73.3069 24.2224 73.3069 24.1898L73.9501 21.4295L76.287 11.3491L76.3277 11.0153C76.332 10.9253 76.3175 10.8354 76.2853 10.7514C76.2531 10.6673 76.2037 10.5908 76.1405 10.5267C76.0773 10.4497 75.9977 10.3878 75.9076 10.3455C75.8174 10.3033 75.7189 10.2817 75.6193 10.2824H69.5288C69.6958 10.3405 69.8393 10.4514 69.9378 10.5983C70.0362 10.7452 70.0841 10.9201 70.0743 11.0967C70.0541 11.2859 70.0215 11.4736 69.9766 11.6585L69.887 12.0412L68.9995 15.8519H67.4117L68.5109 11.3491C68.5036 11.2543 68.5036 11.159 68.5109 11.0641C68.5153 10.9641 68.4994 10.8642 68.4642 10.7706C68.4289 10.6769 68.375 10.5913 68.3058 10.519C68.2365 10.4467 68.1533 10.3892 68.0613 10.3499C67.9692 10.3107 67.8701 10.2905 67.77 10.2906H61.712C61.8741 10.3559 62.0128 10.4685 62.1101 10.6137C62.2074 10.7589 62.2587 10.93 62.2575 11.1048C62.2457 11.2951 62.2129 11.4835 62.1598 11.6667L61.9725 12.4809L59.1715 24.4585C59.1599 24.5641 59.1599 24.6705 59.1715 24.7761C59.1814 24.9664 59.2576 25.1472 59.3871 25.2871C59.5165 25.4269 59.6909 25.517 59.8799 25.5415H66.0193C65.8402 25.4953 65.6821 25.3895 65.5711 25.2415C65.4601 25.0935 65.4028 24.9121 65.4086 24.7272L65.3924 24.6539ZM47.2509 6.39848L48.4885 1.07328H47.2102L45.8911 2.62035L44.743 3.98015L45.427 1.07328H43.8799L42.6422 6.39848H43.9857L45.3455 4.84326L46.3389 3.68702L45.7201 6.39848H47.2346H47.2509ZM52.0957 6.39848L53.3415 1.07328H51.8921L51.4036 3.14962L51.2896 3.19848L51.1267 3.24733H50.9476H50.7766C50.3858 3.24733 50.2473 2.97591 50.3613 2.43308L50.6952 1.00814H49.2376L48.8142 2.79949C48.7576 3.05423 48.7576 3.31829 48.8142 3.57303C48.8524 3.76401 48.9458 3.93956 49.083 4.07786C49.222 4.2112 49.3931 4.30654 49.5796 4.35471C49.7893 4.4115 50.0057 4.43891 50.2229 4.43613C50.3774 4.44623 50.5325 4.44623 50.687 4.43613C50.841 4.41772 50.9935 4.38778 51.143 4.34656L50.6789 6.35776H52.1364L52.0957 6.39848ZM57.5023 6.39848L58.74 1.07328H57.2499L56.8265 3.07634H55.5074L55.9715 1.07328H54.4651L53.2275 6.39848H54.7338L55.198 4.35471H56.517L56.0122 6.39848H57.5023V6.39848ZM61.7527 4.28142H60.9384L61.199 3.74402L61.6712 2.79135H61.712V3.71145L61.7527 4.28142ZM61.9155 6.39848H63.4707L62.8601 1.07328H61.3048L58.1863 6.39848H59.8148L60.2952 5.47023H61.8748L61.9155 6.39848ZM67.9003 2.27837L67.6804 3.24733H66.9964C66.8775 3.25206 66.7602 3.21774 66.6626 3.14962C66.6178 3.11106 66.5837 3.06153 66.5637 3.00588C66.5437 2.95022 66.5385 2.89033 66.5486 2.83206C66.5438 2.74685 66.5608 2.66182 66.5978 2.58493C66.6348 2.50804 66.6907 2.44178 66.7603 2.39236C66.8907 2.31491 67.0402 2.27543 67.1919 2.27837H67.9084H67.9003ZM68.4458 6.39848L69.6346 1.07328H67.1349C66.8593 1.0703 66.5848 1.10872 66.3206 1.18728C66.0807 1.25748 65.8567 1.37362 65.6611 1.52926C65.4667 1.68644 65.3084 1.88361 65.1969 2.10738C65.0726 2.36146 65.0032 2.63892 64.9934 2.92163C64.9812 3.15447 65.0172 3.38733 65.0992 3.6056C65.1904 3.8309 65.3656 4.01193 65.5878 4.11043C65.3695 4.16874 65.172 4.28724 65.0178 4.45241C64.8909 4.59758 64.7841 4.75917 64.7003 4.93282L64.0244 6.39033H65.5878L66.2229 5.08753C66.2933 4.95071 66.3751 4.81998 66.4672 4.69669C66.5272 4.6163 66.5985 4.545 66.6789 4.48498C66.7366 4.44099 66.8033 4.41039 66.8743 4.39542H67.0697H67.4117L66.9476 6.40661H68.4539L68.4458 6.39848ZM84.0631 10.2173H77.9318C78.1 10.2774 78.2457 10.3877 78.3491 10.5334C78.4525 10.679 78.5087 10.8529 78.5099 11.0315C78.5069 11.1551 78.4906 11.278 78.4611 11.398V11.398L78.0784 13.0265L77.7852 14.2885L75.4402 24.3201C75.4148 24.4436 75.3984 24.5688 75.3913 24.6947C75.4015 24.882 75.4815 25.0588 75.6157 25.19C75.7499 25.3212 75.9285 25.3972 76.116 25.4031H82.2718C82.2262 25.4138 82.1788 25.4138 82.1333 25.4031C82.0167 25.3783 81.9074 25.3266 81.8142 25.2522C81.721 25.1777 81.6466 25.0825 81.5967 24.9741C81.5469 24.8657 81.5231 24.7472 81.5272 24.628C81.5313 24.5088 81.5632 24.3922 81.6204 24.2875C81.6962 24.1117 81.7918 23.9451 81.9053 23.7908L82.0438 23.5791L83.4117 21.4947L85.2031 18.7588L83.8595 24.3852C83.8571 24.4593 83.8376 24.5317 83.8025 24.5969C83.8022 24.8047 83.8812 25.0047 84.0235 25.1561C84.1658 25.3075 84.3606 25.3987 84.5679 25.4112H90.6992C90.5121 25.3792 90.3441 25.2773 90.2292 25.1261C90.1144 24.975 90.0612 24.7858 90.0804 24.5969C90.0957 24.4148 90.1396 24.2361 90.2107 24.0677L90.8295 21.3562L93.1583 11.2921L93.2153 10.9746C93.2182 10.8872 93.2031 10.8001 93.1709 10.7189C93.1387 10.6376 93.09 10.5639 93.028 10.5023C92.964 10.423 92.8836 10.3586 92.7921 10.3136C92.7007 10.2686 92.6006 10.244 92.4987 10.2417H86.4814H86.5466C86.6568 10.2763 86.7583 10.3339 86.8445 10.4108C86.9307 10.4876 86.9996 10.5819 87.0466 10.6874C87.0936 10.7929 87.1176 10.9072 87.117 11.0227C87.1164 11.1382 87.0913 11.2522 87.0432 11.3573C86.9643 11.5306 86.866 11.6945 86.7501 11.8458L83.3628 16.943L84.7308 11.2433C84.7495 11.1164 84.7495 10.9874 84.7308 10.8606C84.7008 10.6826 84.6125 10.5197 84.4799 10.3974C84.3472 10.2751 84.1777 10.2003 83.998 10.1847L84.0631 10.2173ZM75.5542 2.87277L76.9384 2.35979C76.9218 2.15333 76.859 1.95323 76.7547 1.77426C76.6504 1.59529 76.5073 1.442 76.3359 1.3257C75.9912 1.14115 75.6114 1.03127 75.2214 1.00322C74.8314 0.975158 74.4399 1.02955 74.0723 1.16285C73.8162 1.26774 73.5836 1.42277 73.3883 1.61883C73.1979 1.81438 73.0411 2.03996 72.9242 2.28651C72.8017 2.54669 72.7088 2.81983 72.6473 3.10076L72.3542 4.32214C72.2866 4.60862 72.2866 4.9069 72.3542 5.19338C72.407 5.44473 72.5249 5.67779 72.6962 5.86921C72.8777 6.06636 73.1039 6.21714 73.3557 6.30891C73.6584 6.41799 73.9786 6.47043 74.3003 6.46361C74.7389 6.45418 75.1689 6.3397 75.5542 6.12977C75.9652 5.89295 76.286 5.52636 76.4662 5.08753L75.1389 4.5827C75.063 4.77355 74.943 4.94374 74.7888 5.07939C74.6653 5.175 74.5134 5.22659 74.3572 5.22595C74.2504 5.22871 74.1445 5.2064 74.0478 5.16081C73.9735 5.12512 73.9113 5.06853 73.8687 4.99797C73.8276 4.92593 73.8052 4.84475 73.8036 4.76183C73.7905 4.66728 73.7905 4.57139 73.8036 4.47685L74.1455 3.01934C74.1906 2.82769 74.2798 2.64923 74.4061 2.49822C74.4709 2.42476 74.5513 2.36684 74.6416 2.32878C74.7318 2.29072 74.8294 2.27349 74.9272 2.27837H75.1308C75.1968 2.29347 75.2582 2.32419 75.3099 2.36794C75.3692 2.4195 75.4164 2.48342 75.4483 2.55522C75.4873 2.65367 75.5066 2.75877 75.5053 2.86463L75.5542 2.87277ZM81.7425 2.3028L82.0682 1.07328H78.1435L76.9059 6.39848H80.9038L81.1807 5.16081H78.7379L78.9415 4.28957H81.0015L81.2539 3.05191H79.1939L79.3649 2.31908H81.8076L81.7425 2.3028ZM86.7094 2.3028L87.0025 1.06514H82.6952L82.402 2.3028H83.8025L82.8499 6.37404H84.3562L85.3089 2.3028H86.7094ZM95.8046 13.7511H96.7328L94.2412 24.3364C94.2166 24.4515 94.2029 24.5688 94.2005 24.6865C94.2137 24.87 94.2926 25.0426 94.4227 25.1727C94.5528 25.3028 94.7254 25.3817 94.9089 25.3949H101.04C100.858 25.3575 100.695 25.2533 100.586 25.1027C100.476 24.9522 100.426 24.766 100.446 24.5807C100.461 24.3901 100.496 24.2018 100.552 24.0188L100.902 22.5695L102.986 13.743H104.655C104.872 13.7629 105.088 13.7013 105.261 13.5702C105.434 13.4392 105.552 13.2482 105.592 13.0346L106.496 9.65547C106.459 9.79081 106.388 9.91439 106.29 10.0142C106.191 10.1141 106.069 10.1869 105.934 10.2254C105.726 10.2495 105.515 10.2495 105.307 10.2254H95.5359C95.3414 10.1944 95.1424 10.2412 94.9822 10.3557C94.9023 10.4058 94.8341 10.4724 94.7821 10.551C94.7301 10.6297 94.6956 10.7186 94.6809 10.8117L93.8667 14.3211C93.9091 14.1874 93.9854 14.0669 94.0881 13.9713C94.1908 13.8757 94.3165 13.8083 94.4529 13.7756C94.6423 13.7541 94.8335 13.7541 95.0229 13.7756H95.8372L95.8046 13.7511ZM89.6326 4.63155C89.633 4.70834 89.6146 4.78407 89.5792 4.85217C89.5437 4.92028 89.4922 4.9787 89.429 5.02239C89.3017 5.10862 89.1512 5.15406 88.9975 5.15267H88.2483L88.4601 4.257H89.1929C89.3178 4.24332 89.4432 4.27832 89.543 4.35471C89.5788 4.3907 89.6062 4.43422 89.6231 4.48211C89.64 4.52999 89.646 4.58104 89.6407 4.63155H89.6326ZM91.0249 5.31552C91.1528 5.06233 91.225 4.78469 91.2366 4.50127C91.2477 4.32021 91.2284 4.13858 91.1796 3.96387C91.1313 3.79767 91.0416 3.64641 90.9191 3.52417C90.7811 3.38616 90.6143 3.28049 90.4305 3.21476C90.1842 3.13146 89.925 3.09286 89.6651 3.10076H88.802L89.2662 1.08957H87.7679L86.5303 6.41476H88.8998C89.208 6.4174 89.515 6.37628 89.8117 6.29262C90.0771 6.21822 90.3258 6.09386 90.5445 5.92621C90.747 5.75988 90.911 5.5515 91.0249 5.31552V5.31552ZM114.011 25.4031V10.201C114.011 8.18618 113.211 6.25387 111.786 4.82917C110.361 3.40446 108.429 2.60407 106.414 2.60407H93.5084L92.971 4.88397H106.398C107.807 4.88612 109.159 5.447 110.155 6.44368C111.152 7.44035 111.713 8.79151 111.715 10.201V25.4031C111.713 26.8126 111.152 28.1637 110.155 29.1604C109.159 30.1571 107.807 30.7179 106.398 30.7201H7.59694C6.18743 30.7179 4.83627 30.1571 3.83959 29.1604C2.84292 28.1637 2.28204 26.8126 2.27989 25.4031V10.201C2.28204 8.79151 2.84292 7.44035 3.83959 6.44368C4.83627 5.447 6.18743 4.88612 7.59694 4.88397H20.9995L21.5369 2.60407H7.59694C5.5821 2.60407 3.64979 3.40446 2.22508 4.82917C0.80038 6.25387 0 8.18618 0 10.201V25.4031C0 27.4179 0.80038 29.3502 2.22508 30.7749C3.64979 32.1996 5.5821 33 7.59694 33H106.398C108.413 33 110.345 32.1996 111.77 30.7749C113.195 29.3502 113.995 27.4179 113.995 25.4031" fill="#AFBED0"/>
</svg>
