<svg width="146" height="32" viewBox="0 0 146 32" fill="none" xmlns="http://www.w3.org/2000/svg">
<path d="M26.6697 4.36697C26.8146 4.0367 26.8146 4.0367 27.6118 2.09174C25.6914 1.87156 24.6405 1.68808 22.9736 1.72477C20.7995 0.623853 18.3717 0 15.7989 0C7.06602 0 0 7.15596 0 16C0 24.844 7.06602 32 15.7989 32C24.5318 32 31.5978 24.844 31.5978 16C31.5978 11.4129 29.6773 7.30275 26.6697 4.36697Z" fill="white"/>
<path d="M25.509 6.60479C25.4727 6.5681 25.4365 6.5681 25.4003 6.5681C25.364 6.5681 25.3278 6.60479 25.2915 6.60479C24.6393 7.37544 23.8783 8.07269 23.0449 8.62315C21.3781 9.68736 19.4938 10.2746 17.5008 10.2746C13.8047 10.2746 11.703 8.43966 9.99995 7.11855C9.96372 7.08186 9.92748 7.04516 9.92748 7.00846C9.92748 6.97176 9.96372 6.93507 9.99995 6.89837C12.6452 4.84333 14.8194 3.52222 17.0297 2.75158C17.1022 2.71489 17.1385 2.67819 17.1385 2.60479C17.1385 2.5314 17.066 2.4947 16.9935 2.458C16.5949 2.42131 16.1963 2.42131 15.7977 2.42131C8.36933 2.38461 2.35416 8.47635 2.35416 15.9993C2.35416 20.1461 4.16596 23.8525 7.06484 26.3479C7.10107 26.3846 7.13731 26.3846 7.20978 26.3846C7.24602 26.3846 7.28226 26.3479 7.31849 26.2746L7.86203 24.513C7.89826 24.4397 7.97074 24.4029 8.04321 24.4029C15.2179 25.9809 18.298 22.0544 17.7907 19.5956C17.3558 17.5039 13.9859 15.669 9.05782 18.4947C9.02159 18.5314 8.98535 18.5314 8.94911 18.4947C8.94911 18.4947 8.91288 18.4947 8.91288 18.458C8.87664 18.4213 8.8404 18.3846 8.8404 18.3112L10.5072 9.68736C10.5072 9.65067 10.5435 9.61396 10.5798 9.57727C10.6159 9.54057 10.6884 9.57727 10.7247 9.57727C11.1958 9.87085 12.6089 10.7883 14.1308 11.7057C14.1671 11.7424 14.2033 11.7791 14.2033 11.8525C14.1671 12.2195 13.9497 13.5773 13.8772 14.1645C13.8772 14.2011 13.8772 14.2746 13.9135 14.3112C13.9497 14.3479 13.9859 14.3479 14.0584 14.3479C22.3202 12.1094 24.0595 17.3571 23.8421 19.8525C23.3348 25.5406 17.1385 28.5497 11.6306 28.6231C11.5581 28.6231 11.4857 28.6598 11.4857 28.7332C11.4857 28.8067 11.5219 28.88 11.5943 28.88C12.9351 29.3204 14.3483 29.5773 15.7977 29.5773C23.2261 29.5773 29.2412 23.4855 29.2412 15.9626C29.2412 12.3663 27.7919 9.02681 25.509 6.60479Z" fill="#AFBED0"/>
<path d="M12.3214 6.97238C16.7785 10.3852 23.3009 8.66046 25.4751 3.33936C21.4529 5.28431 16.9959 6.53202 12.3214 6.97238Z" fill="#AFBED0"/>
<path d="M12.3214 6.97231C16.9959 6.56863 21.4167 5.32093 25.4751 3.33928C20.9456 2.82552 16.2349 3.96313 12.3214 6.97231Z" fill="#AFBED0"/>
<path d="M80.4798 12.4776C78.7767 12.4776 77.7621 13.5785 76.9286 14.9363H76.8924C76.8924 13.5418 76.3488 12.4776 74.7907 12.4776C72.9426 12.4776 71.9643 13.8721 71.312 15.0464H71.2758C71.3845 14.606 71.4932 13.9822 71.6019 13.4684C71.6382 13.2849 71.5657 13.1014 71.457 12.9913C71.3483 12.8446 71.1671 12.7712 70.9859 12.7712H69.1379L67.471 22.2023C67.4348 22.3492 67.471 22.5326 67.5797 22.6794C67.6885 22.7895 67.8334 22.8629 68.0146 22.8629H69.9713L70.1163 22.0189C71.0946 16.4042 72.4354 14.8629 73.5225 14.8629C74.2834 14.8629 74.3921 15.5969 74.2109 16.5876L73.1963 22.0922C73.1601 22.2757 73.1963 22.4593 73.3413 22.606C73.45 22.7528 73.6312 22.8262 73.8124 22.8262H75.7328L75.8778 21.9822C76.8562 16.4042 78.1969 14.8262 79.284 14.8262C80.0087 14.8262 80.1174 15.5235 79.9362 16.551L78.9216 22.2023C78.8853 22.3492 78.9216 22.4959 79.0303 22.6427C79.1391 22.7528 79.284 22.8262 79.4289 22.8262H81.4219L82.5452 16.4409C82.6539 15.9271 82.6901 15.45 82.6901 15.0464C82.6539 13.3583 81.8567 12.4776 80.4798 12.4776ZM91.5679 10.3491L92.4377 10.4959C92.6913 10.5326 92.9087 10.5693 92.9812 10.1657L93.2711 9.06474C93.3436 8.73446 93.2348 8.66107 92.9087 8.58768L92.1115 8.44089C91.9303 8.44089 91.6405 8.36749 91.5679 8.77116L91.2418 9.90877C91.2056 10.1657 91.2781 10.3124 91.5679 10.3491ZM66.2028 12.7712H62.398C59.5716 12.7712 57.6873 13.9822 57.6873 16.2574C57.6873 17.4684 58.5207 18.2391 59.3541 18.3124V18.3492C59.0281 18.4593 58.6657 18.8996 58.2671 19.3767C57.5786 20.2574 57.0713 20.8446 56.6364 20.8446C56.564 20.8446 56.4915 20.9179 56.4553 20.9914L56.2379 22.5694C56.2379 22.6427 56.2379 22.7161 56.3103 22.7528C56.3466 22.7895 56.4191 22.8262 56.4915 22.8262H57.2887C58.5932 22.8262 59.0281 22.3124 60.2963 20.6977C61.2747 19.3767 61.637 18.973 62.253 18.973H62.6879L62.0719 22.5326C62.0719 22.606 62.0719 22.6794 62.1081 22.7161C62.1443 22.7895 62.2168 22.7895 62.2893 22.7895H64.4997C64.6084 22.7895 64.7171 22.7161 64.7171 22.606L66.4202 12.9913C66.4202 12.918 66.4202 12.8446 66.3839 12.8079C66.3477 12.8079 66.2752 12.7712 66.2028 12.7712ZM63.0502 17.1748H61.6732C60.8036 17.1748 60.405 16.8813 60.405 16.2941C60.405 15.3033 61.021 14.7895 62.2168 14.7895H63.5213L63.0502 17.1748ZM59.5716 8.11061C70.1525 7.67024 86.8573 9.6519 86.8573 9.6519C87.0747 9.68859 87.2559 9.5785 87.3284 9.39501L87.5096 8.84456L87.7994 7.92713C87.8357 7.85373 87.7994 7.81703 87.7632 7.74364C87.7269 7.70694 87.6908 7.67024 87.6182 7.63355C85.5528 7.33997 70.2975 5.35832 59.2092 5.6152C48.7733 5.87208 40.0041 7.96382 37.6488 8.58768C37.4676 8.62437 37.3227 8.77116 37.2864 8.99135L37.0328 10.3491C37.0328 10.4225 37.0328 10.4959 37.1052 10.5326C37.1415 10.5693 37.214 10.606 37.2864 10.5693C39.1707 10.129 41.8159 9.68859 45.2946 9.24822L42.9755 22.3858C42.903 22.606 42.903 22.8629 43.3378 22.8629H45.5845C45.7294 22.8629 45.9106 22.8262 45.9831 22.4593L48.1572 9.76198C48.1572 9.72529 48.3022 9.06474 49.0269 8.88125C49.969 8.77117 51.5996 8.69776 52.578 8.58768L50.1502 22.3858C50.0777 22.8629 50.2952 22.8262 50.4764 22.8262H52.8317C53.0129 22.8262 53.3027 22.7895 53.3753 22.3492L55.6581 9.10144C55.6581 9.10144 55.8031 8.40419 56.5278 8.2574C57.6873 8.2207 58.4121 8.14731 59.5716 8.11061ZM88.814 9.98217L89.7924 10.129C90.046 10.1657 90.2635 10.2024 90.3722 9.79869L90.6983 8.66107C90.7708 8.2941 90.6621 8.2207 90.3359 8.14731L89.43 8.03721C89.2488 8.00052 88.9589 7.96382 88.8503 8.36749L88.5241 9.5418C88.4155 9.76198 88.4879 9.90877 88.814 9.98217ZM92.6188 15.1198C92.6188 13.4684 91.4955 12.5143 89.575 12.5143C86.3862 12.5143 83.8497 15.3033 83.8497 19.0831C83.8497 21.4684 85.1542 23.1198 87.6545 23.1198C89.6112 23.1198 90.8795 22.3492 91.6405 21.6519L90.5896 19.8537C89.9736 20.4042 89.1039 20.9179 88.053 20.9179C86.966 20.9179 86.5311 20.2207 86.4949 19.0831C89.8287 18.7161 92.6188 17.5785 92.6188 15.1198ZM86.6761 17.3583C87.0385 15.8904 87.8719 14.5694 89.1401 14.5694C89.7562 14.5694 90.0823 14.8262 90.0823 15.4134C90.046 16.4776 88.6691 17.1748 86.6761 17.3583ZM100.482 12.4776C98.7427 12.4776 97.8368 13.6886 97.0034 15.1198H96.9672C97.0758 14.7528 97.1483 14.4225 97.2208 14.0556C97.2933 13.7253 97.2208 13.395 97.0034 13.1381C96.786 12.8813 96.4961 12.7345 96.1699 12.7345H94.9017L92.2565 27.3399H93.7421C94.3944 27.3399 94.9742 26.8629 95.0828 26.2023L95.6626 22.9363C95.8801 23.0097 96.3149 23.0831 97.0396 23.0831C100.482 23.0831 102.982 20.2574 102.982 15.8904C103.055 13.8354 102.04 12.4776 100.482 12.4776ZM97.1121 21.1015C96.5323 21.1015 96.2424 21.028 96.0975 20.9914L96.2062 20.4409C96.9672 16.7345 98.2354 14.8629 99.4312 14.8629C100.047 14.8629 100.337 15.45 100.337 16.3675C100.265 19.3033 98.8514 21.1015 97.1121 21.1015ZM142.081 12.4776C138.385 12.4776 135.812 15.45 135.812 19.7803C135.812 21.8354 136.863 23.0831 138.385 23.0831C140.016 23.0831 140.994 21.8721 141.755 20.4042H141.791C141.683 20.8446 141.61 21.395 141.537 21.9088C141.501 22.129 141.574 22.3858 141.755 22.5694C141.9 22.7528 142.117 22.8629 142.371 22.8629H144.074C144.11 22.129 144.219 20.4776 144.69 17.6886L145.523 13.1014C145.088 12.8813 143.893 12.4776 142.081 12.4776ZM142.552 15.1932C141.863 18.973 140.559 20.7712 139.472 20.7712C138.856 20.7712 138.566 20.2941 138.566 19.3033C138.566 16.4776 140.051 14.4959 141.683 14.4959C142.081 14.4959 142.443 14.5694 142.624 14.606L142.552 15.1932ZM132.333 18.8629C132.044 18.2757 131.754 17.8721 131.464 17.6152L135.848 12.7712H133.457C133.058 12.7712 132.659 12.9546 132.37 13.2849L129.29 16.8813H128.746L129.326 13.5785C129.362 13.395 129.326 13.1748 129.181 13.028C129.072 12.8813 128.854 12.7712 128.674 12.7712H126.753L125.014 22.8629H126.934C127.369 22.8629 127.731 22.5326 127.804 22.129L128.42 18.7161H128.71C129.29 18.7161 129.652 19.3399 130.268 20.6977C130.992 22.2757 131.355 22.8629 132.624 22.8629H133.674L134.036 20.8446H133.819C133.348 20.8446 132.95 20.2207 132.333 18.8629ZM121.535 13.395C121.136 15.9638 119.832 17.6519 118.563 17.6519C117.911 17.6519 117.694 17.1748 117.875 16.0739L118.202 14.0922C118.237 13.762 118.165 13.4317 117.948 13.1748C117.731 12.918 117.44 12.7712 117.114 12.7712H115.773L115.158 16.184C115.085 16.6244 115.049 17.0647 115.049 17.4317C115.049 19.1198 115.846 20.0372 117.259 20.0372C119.035 20.0372 120.195 18.8629 120.919 17.5785H120.955C120.666 19.1198 120.267 21.395 120.122 22.8262H122.694C122.731 22.0922 122.912 20.4409 123.383 17.6519L124.253 12.7345H121.608L121.535 13.395ZM109.65 12.4776C106.425 12.4776 103.997 15.3767 103.997 18.8629C103.997 21.1748 105.41 23.0831 107.983 23.0831C111.28 23.0831 113.563 20.3308 113.563 16.6977C113.6 14.3124 112.15 12.4776 109.65 12.4776ZM108.237 21.028C107.222 21.028 106.715 20.1473 106.715 18.8262C106.715 16.9546 107.765 14.5694 109.432 14.5694C110.447 14.5694 110.954 15.3399 110.954 16.7345C110.954 18.5694 110.012 21.028 108.237 21.028Z" fill="#AFBED0"/>
</svg>
