<svg width="188" height="32" viewBox="0 0 188 32" fill="none" xmlns="http://www.w3.org/2000/svg">
<path d="M28.9032 0H0V28.9032H28.9032L14.4465 14.4567L28.9032 0Z" fill="#AFBED0"/>
<path d="M21.9266 6.97656H6.97662V21.9265H21.9266L14.4463 14.4568L21.9266 6.97656Z" fill="#91A4BB"/>
<path d="M41.3107 16.3758H44.35V21.5872H44.4009L48.9751 16.3758H52.8481L47.3386 22.2678L53.1733 29.1758H49.1378L44.3805 23.2837H44.35V29.1758H41.3107V16.3758ZM53.5393 22.725C53.5393 18.6208 56.5075 16.0405 60.5024 16.0405C64.5176 16.0405 67.4858 18.631 67.4858 22.725C67.4858 26.7783 64.5176 29.5212 60.5024 29.5212C56.5075 29.5212 53.5393 26.7681 53.5393 22.725ZM64.172 22.725C64.172 20.4799 62.6675 18.824 60.5024 18.824C58.327 18.824 56.8429 20.4901 56.8429 22.725C56.8429 25.0412 58.3474 26.697 60.5024 26.697C62.6574 26.697 64.172 25.031 64.172 22.725ZM70.0779 16.3758H73.1681V21.2215H78.1693V16.3758H81.2595V29.1758H78.1693V23.8221H73.1681V29.1758H70.0779V16.3758ZM94.9925 29.1758H85.2035V16.3758H88.3039V26.5345H93.2238V16.3758H96.314V26.5345H97.7066V31.9085H94.9925V29.1758ZM100.411 16.3758H109.02V18.9967H103.389V21.4043H108.705V23.8831H103.389V26.5345H109.346V29.1758H100.411V16.3758ZM112.405 16.3758H117.112C119.917 16.3758 122.123 17.3916 122.123 20.3174C122.123 23.2837 119.714 24.3504 117.041 24.3504H115.496V29.1758H112.405V16.3758ZM116.797 21.892C117.955 21.892 119.023 21.5466 119.023 20.3377C119.023 19.1085 117.955 18.8748 116.847 18.8748H115.496V21.892H116.797ZM124.603 16.3758H127.694V21.2215H132.685V16.3758H135.775V29.1758H132.685V23.8221H127.694V29.1758H124.603V16.3758Z" fill="#AFBED0"/>
<path d="M41.3107 0.375732H44.35V5.58716H44.4009L48.9751 0.375732H52.848L47.3386 6.2678L53.1733 13.1757H49.1378L44.3805 7.28367H44.35V13.1757H41.3107V0.375732Z" fill="#AFBED0"/>
<path d="M58.6929 0.375765H61.6916L67.008 13.1758H63.5722L62.576 10.6666H57.6154L56.6701 13.1758H53.3054L58.6929 0.375765ZM61.7323 8.18783L60.1364 3.79926L58.5099 8.18783H61.7323ZM86.9315 0.375765H89.9302L95.2466 13.1758H91.8108L90.8146 10.6666H85.854L84.9087 13.1758H81.544L86.9315 0.375765ZM89.9709 8.18783L88.375 3.79926L86.7486 8.18783H89.9709ZM97.3609 0.375765H100.451V10.5345H104.487V0.375765H107.577V10.5345H111.612V0.375765H114.703V13.1758H97.3609V0.375765ZM118.657 0.375765H121.747V5.22148H126.748V0.375765H129.838V13.1758H126.748V7.83227H121.747V13.1758H118.657V0.375765ZM133.793 0.375765H136.852V8.80751H136.923L141.843 0.375765H145.096V13.1758H142.037V4.95735H141.986L137.096 13.1758H133.793V0.375765ZM149.05 0.375765H152.09V5.58719H152.141L156.715 0.375765H160.588L155.068 6.26783L160.913 13.1758H156.878L152.12 7.2837H152.09V13.1758H149.05V0.375765ZM161.279 6.72497C161.279 2.62084 164.247 0.0405273 168.242 0.0405273C172.257 0.0405273 175.226 2.62084 175.226 6.72497C175.226 10.7783 172.257 13.5212 168.242 13.5212C164.237 13.5212 161.279 10.7783 161.279 6.72497ZM171.912 6.72497C171.912 4.47989 170.407 2.82402 168.242 2.82402C166.067 2.82402 164.593 4.49005 164.593 6.72497C164.593 9.04116 166.097 10.7072 168.242 10.7072C170.387 10.7072 171.912 9.04116 171.912 6.72497ZM177.818 0.375765H182.921C184.913 0.375765 187.281 1.07672 187.281 3.66719C187.281 5.07926 186.427 6.01386 185.187 6.43037V6.46084C186.651 6.71481 187.81 7.76116 187.81 9.44751C187.81 12.231 185.37 13.1656 182.931 13.1656H177.828V0.375765H177.818ZM182.463 5.47545C183.622 5.47545 184.293 4.98783 184.293 4.0837C184.293 3.22021 183.622 2.83418 182.321 2.83418H180.806V5.47545H182.463ZM182.534 10.6869C183.51 10.6869 184.71 10.4126 184.71 9.17323C184.71 8.10656 183.846 7.76116 182.524 7.76116H180.806V10.6869H182.534ZM75.7296 0.375765H72.7309L67.3536 13.1758H70.7182L74.1744 3.79926L77.6102 13.1758H81.046L75.7296 0.375765Z" fill="#AFBED0"/>
</svg>
