<svg width="54" height="70" viewBox="0 0 54 70" fill="none" xmlns="http://www.w3.org/2000/svg">
<path d="M36.8483 44.4262C38.8361 43.0019 40.4599 41.1288 41.5879 38.9591C42.7158 36.7894 43.3161 34.3842 43.34 31.9389C43.3507 30.2595 43.252 28.5811 43.0444 26.9145H40.2366C40.4402 28.5814 40.5354 30.2597 40.5216 31.9389C40.5005 34.3977 39.7741 36.7987 38.4288 38.8569C37.0835 40.9151 35.1758 42.544 32.9322 43.55C32.6887 43.6839 32.4828 43.8768 32.3334 44.1111C32.184 44.3453 32.0959 44.6134 32.0772 44.8906C32.0906 45.1834 32.2019 45.4632 32.3933 45.6853C32.5847 45.9073 32.8451 46.0586 33.1327 46.115C42.9177 48.5639 50.0216 56.6706 50.6233 65.9384H3.43997C4.17886 56.6389 11.1561 48.5639 20.9411 46.115C21.2203 46.0419 21.4708 45.8856 21.6593 45.667C21.8478 45.4483 21.9654 45.1776 21.9966 44.8906C22.021 44.6043 21.9505 44.3179 21.796 44.0756C21.6415 43.8333 21.4115 43.6487 21.1416 43.55C18.8988 42.5429 16.9918 40.9138 15.6467 38.8558C14.3015 36.7979 13.5746 34.3974 13.5522 31.9389C13.5415 30.2595 13.6402 28.5811 13.8478 26.9145H11.0716C10.8719 28.5817 10.7767 30.2598 10.7866 31.9389C10.811 34.383 11.4103 36.787 12.5363 38.9563C13.6622 41.1257 15.2831 42.9995 17.2677 44.4262C7.35608 48.2156 0.611084 57.2723 0.611084 67.4267C0.613869 67.786 0.758559 68.1297 1.01362 68.3827C1.26868 68.6358 1.61344 68.7778 1.97275 68.7778H52.0272C52.3865 68.7778 52.7313 68.6358 52.9863 68.3827C53.2414 68.1297 53.3861 67.786 53.3889 67.4267C53.3889 57.2723 46.6439 48.2156 36.8483 44.4262Z" fill="#222831" stroke="#222831" stroke-width="1.2" stroke-miterlimit="10"/>
<path d="M42.8334 26.3128H45.7889C46.1446 26.3073 46.484 26.1629 46.7345 25.9104C46.985 25.6579 47.1268 25.3174 47.1295 24.9617V19.0928C47.1268 18.7372 46.985 18.3967 46.7345 18.1442C46.484 17.8917 46.1446 17.7472 45.7889 17.7417H43.4562C42.8597 14.7309 41.4491 11.9413 39.3777 9.6764C37.3063 7.41146 34.6535 5.75791 31.7078 4.89562V2.5734C31.7051 2.21772 31.5633 1.87723 31.3128 1.62473C31.0623 1.37224 30.7229 1.22779 30.3673 1.22229H23.6328C23.2772 1.22779 22.9378 1.37224 22.6873 1.62473C22.4368 1.87723 22.295 2.21772 22.2923 2.5734V4.89562C19.3466 5.75791 16.6938 7.41146 14.6224 9.6764C12.551 11.9413 11.1404 14.7309 10.5439 17.7417H8.21116C7.85552 17.7472 7.51614 17.8917 7.26562 18.1442C7.0151 18.3967 6.87332 18.7372 6.87061 19.0928V24.9617C6.87332 25.3174 7.0151 25.6579 7.26562 25.9104C7.51614 26.1629 7.85552 26.3073 8.21116 26.3128H42.8334ZM9.43561 20.5601H11.6417C11.8025 20.5642 11.9623 20.5333 12.1099 20.4695C12.2576 20.4057 12.3895 20.3106 12.4967 20.1906C12.7167 19.9428 12.8821 19.6515 12.9823 19.3356C13.3139 16.7612 14.3456 14.3272 15.9648 12.2985C17.584 10.2698 19.7288 8.72423 22.1656 7.83007V16.4012C22.1954 16.7375 22.3501 17.0505 22.5992 17.2785C22.8483 17.5065 23.1738 17.633 23.5114 17.633C23.8491 17.633 24.1746 17.5065 24.4237 17.2785C24.6728 17.0505 24.8275 16.7375 24.8573 16.4012V3.91396H28.9V16.2745C28.8835 16.4613 28.906 16.6494 28.9661 16.827C29.0262 17.0046 29.1226 17.1677 29.2492 17.306C29.3758 17.4443 29.5298 17.5548 29.7014 17.6304C29.873 17.7059 30.0584 17.7449 30.2459 17.7449C30.4334 17.7449 30.6188 17.7059 30.7904 17.6304C30.962 17.5548 31.116 17.4443 31.2425 17.306C31.3691 17.1677 31.4656 17.0046 31.5257 16.827C31.5858 16.6494 31.6083 16.4613 31.5917 16.2745V7.83007C34.0193 8.73108 36.1537 10.2798 37.7633 12.3081C39.373 14.3364 40.3963 16.7668 40.7223 19.3356C40.7289 19.5078 40.7776 19.6758 40.8641 19.8248C40.9505 19.9738 41.0722 20.0994 41.2184 20.1906C41.3479 20.3132 41.5003 20.409 41.667 20.4724C41.8337 20.5358 42.0112 20.5656 42.1895 20.5601H44.3956V23.6212H9.43561V20.5601Z" fill="#EC6B08" stroke="#EC6B08" stroke-width="1.2" stroke-miterlimit="10"/>
</svg>
