<svg width="53" height="70" viewBox="0 0 53 70" fill="none" xmlns="http://www.w3.org/2000/svg">
<g clip-path="url(#clip0)">
<path d="M53.34 20.3101C53.34 18.5901 53.27 16.9701 53.27 15.3901C53.2701 15.0938 53.2111 14.8006 53.0965 14.5274C52.982 14.2542 52.8141 14.0065 52.6028 13.7989C52.3915 13.5913 52.1409 13.4279 51.8657 13.3182C51.5905 13.2085 51.2962 13.1548 51 13.1601C41.45 13.1601 34.18 10.4201 28.13 4.52009C27.7108 4.11677 27.1517 3.89148 26.57 3.89148C25.9883 3.89148 25.4292 4.11677 25.01 4.52009C18.95 10.4201 11.69 13.1601 2.14003 13.1601C1.84634 13.1588 1.55528 13.2155 1.28357 13.327C1.01186 13.4384 0.764844 13.6025 0.556709 13.8097C0.348574 14.0169 0.183419 14.2632 0.0707257 14.5344C-0.041967 14.8056 -0.0999782 15.0964 -0.0999753 15.3901C-0.0999753 16.9701 -0.0999748 18.5901 -0.159975 20.3201C-0.459975 36.3201 -0.879974 58.3201 25.84 67.5501C26.0744 67.6337 26.3212 67.6776 26.57 67.6801C26.8188 67.6767 27.0654 67.6328 27.3 67.5501C54.02 58.2901 53.6 36.3401 53.3 20.3101H53.34ZM26.61 63.0701C3.69003 54.7501 4.00003 36.5101 4.35003 20.4001C4.35003 19.4001 4.35003 18.5001 4.35003 17.5801C13.35 17.2001 20.45 14.4901 26.57 9.16009C32.69 14.4901 39.84 17.1601 48.79 17.5801C48.79 18.5001 48.79 19.4301 48.79 20.4001C49.1 36.5101 49.45 54.7501 26.53 63.0701H26.61Z" fill="#222831" stroke="white" stroke-width="0.5" stroke-miterlimit="10"/>
<path d="M34.3001 28.0001L23.5201 38.8001L18.9201 34.2001C18.7126 33.9933 18.4664 33.8293 18.1955 33.7176C17.9247 33.6059 17.6345 33.5487 17.3415 33.5492C17.0486 33.5496 16.7585 33.6078 16.4881 33.7203C16.2176 33.8329 15.9719 33.9976 15.7651 34.2051C15.5582 34.4126 15.3943 34.6588 15.2826 34.9296C15.1709 35.2005 15.1137 35.4907 15.1141 35.7836C15.1146 36.0766 15.1728 36.3666 15.2853 36.6371C15.3979 36.9076 15.5626 37.1533 15.7701 37.3601L21.9401 43.5401C22.3611 43.9554 22.9287 44.1882 23.5201 44.1882C24.1114 44.1882 24.679 43.9554 25.1001 43.5401L37.4501 31.1901C37.6595 30.9833 37.8262 30.7372 37.9405 30.466C38.0549 30.1947 38.1147 29.9036 38.1166 29.6092C38.1184 29.3149 38.0623 29.023 37.9514 28.7504C37.8404 28.4777 37.6769 28.2295 37.4701 28.0201C37.2632 27.8106 37.0172 27.644 36.7459 27.5296C36.4747 27.4152 36.1836 27.3554 35.8892 27.3536C35.5948 27.3517 35.303 27.4078 35.0303 27.5188C34.7577 27.6297 34.5095 27.7933 34.3001 28.0001Z" fill="#EC6B08" stroke="white" stroke-width="0.75" stroke-miterlimit="10"/>
</g>
<defs>
<clipPath id="clip0">
<rect width="53" height="70" fill="white"/>
</clipPath>
</defs>
</svg>
