<svg width="54" height="54" viewBox="0 0 54 54" fill="none" xmlns="http://www.w3.org/2000/svg">
<path d="M35.4276 39.9274C34.0361 39.9274 32.8969 38.8274 32.8337 37.4513H32.0777C32.0145 38.8274 30.8753 39.9274 29.4839 39.9274C28.0924 39.9274 26.9532 38.8274 26.89 37.4513H26.134C26.0708 38.8274 24.9316 39.9274 23.5402 39.9274C22.1487 39.9274 21.0095 38.8274 20.9463 37.4513H20.1903C20.1271 38.8274 18.9879 39.9274 17.5965 39.9274C16.1648 39.9274 15 38.7627 15 37.331V17.5965C15 16.1648 16.1648 15 17.5965 15C19.0281 15 20.1929 16.1648 20.1929 17.5965V18.017H20.9435V17.5965C20.9435 16.1648 22.1083 15 23.54 15C24.9717 15 26.1364 16.1648 26.1364 17.5965V18.017H26.8871V17.5965C26.8871 16.1648 28.0519 15 29.4835 15C30.9152 15 32.08 16.1648 32.08 17.5965V18.017H32.8306V17.5965C32.8306 16.1648 33.9954 15 35.4271 15C36.8588 15 38.0235 16.1648 38.0235 17.5965V18.023H39.1583C39.1713 18.023 39.1842 18.0236 39.1968 18.025C40.1943 18.0455 40.9995 18.8634 40.9995 19.8658C40.9995 20.8678 40.1953 21.6854 39.1983 21.7066C39.1851 21.708 39.1717 21.7088 39.1582 21.7088H38.0234V33.7654H39.1582C39.1719 33.7654 39.1852 33.7661 39.1985 33.7675C40.1953 33.789 40.9995 34.6065 40.9995 35.6083C40.9995 36.61 40.1953 37.4278 39.1983 37.449C39.1851 37.4504 39.1717 37.4511 39.1582 37.4511H38.0208C37.9581 38.8273 36.8188 39.9274 35.4276 39.9274ZM33.5993 37.0671V37.331C33.5993 38.3392 34.4194 39.1591 35.4274 39.1591C36.4354 39.1591 37.2555 38.339 37.2555 37.331V17.5965C37.2555 16.5883 36.4354 15.7683 35.4274 15.7683C34.4194 15.7683 33.5993 16.5884 33.5993 17.5965V37.0671ZM27.6556 37.0671V37.331C27.6556 38.3392 28.4757 39.1591 29.4837 39.1591C30.4917 39.1591 31.3118 38.339 31.3118 37.331V17.5965C31.3118 16.5883 30.4917 15.7683 29.4837 15.7683C28.4757 15.7683 27.6556 16.5884 27.6556 17.5965V37.0671ZM21.712 37.0671V37.331C21.712 38.3392 22.5321 39.1591 23.5402 39.1591C24.5482 39.1591 25.3683 38.339 25.3683 37.331V17.5965C25.3683 16.5883 24.5482 15.7683 23.5402 15.7683C22.5321 15.7683 21.712 16.5884 21.712 17.5965V37.0671ZM17.5965 15.7683C16.5884 15.7683 15.7683 16.5884 15.7683 17.5965V37.331C15.7683 38.3392 16.5884 39.1591 17.5965 39.1591C18.6045 39.1591 19.4246 38.339 19.4246 37.331V17.5965C19.4247 16.5884 18.6046 15.7683 17.5965 15.7683ZM38.024 36.683H39.1228C39.1347 36.6819 39.1465 36.6813 39.1587 36.6813C39.7504 36.6813 40.2315 36.2 40.2315 35.6084C40.2315 35.0168 39.7503 34.5355 39.1587 34.5355C39.1465 34.5355 39.1347 34.5349 39.1228 34.5338H38.024V36.683ZM32.0803 36.683H32.8309V34.5338H32.0803V36.683ZM26.1368 36.683H26.8874V34.5338H26.1368V36.683ZM20.1931 36.683H20.9437V34.5338H20.1931V36.683ZM32.0803 33.7655H32.8309V21.703H32.0803V33.7655ZM26.1368 33.7655H26.8874V21.703H26.1368V33.7655ZM20.1931 33.7655H20.9437V21.703H20.1931V33.7655ZM38.024 20.9406H39.1228C39.1347 20.9396 39.1465 20.9389 39.1587 20.9389C39.7504 20.9389 40.2315 20.4575 40.2315 19.8659C40.2315 19.2743 39.7503 18.793 39.1587 18.793C39.1471 18.793 39.1358 18.7926 39.1244 18.7915H38.0238V20.9406H38.024ZM32.0803 20.9346H32.8309V18.7855H32.0803V20.9346ZM26.1368 20.9346H26.8874V18.7855H26.1368V20.9346ZM20.1931 20.9346H20.9437V18.7855H20.1931V20.9346Z" fill="#EC6B08"/>
</svg>
