<svg width="54" height="54" viewBox="0 0 54 54" fill="none" xmlns="http://www.w3.org/2000/svg">
<path d="M41 28.3333V27C41 26.6318 40.7015 26.3333 40.3333 26.3333H32.5387C35.8553 24.014 36.6638 19.4452 34.3445 16.1285C32.9723 14.1662 30.7278 12.9981 28.3333 13H27C26.6318 13 26.3333 13.2985 26.3333 13.6667V21.4613C24.014 18.1447 19.4452 17.3362 16.1285 19.6555C14.1662 21.0278 12.9981 23.2722 13 25.6667V27C13 27.3682 13.2985 27.6667 13.6667 27.6667H21.4613C19.5059 29.0398 18.3394 31.2773 18.3333 33.6667C18.3381 37.7147 21.6186 40.9952 25.6667 41H27C27.3682 41 27.6667 40.7015 27.6667 40.3333V32.5387C29.986 35.8553 34.5548 36.6638 37.8715 34.3445C39.8338 32.9723 41.0019 30.7279 41 28.3333ZM27.6667 14.3333H28.3333C31.647 14.3379 34.3296 17.028 34.325 20.3417C34.3214 22.9392 32.6468 25.2393 30.176 26.0407C29.8258 24.8697 28.8628 23.9843 27.6667 23.7333V14.3333ZM14.3333 26.3333V25.6667C14.3394 22.353 17.0307 19.6717 20.3444 19.6778C22.9401 19.6825 25.2383 21.3559 26.04 23.8247C24.8694 24.1749 23.9843 25.1376 23.7333 26.3333H14.3333ZM26.3333 39.6667H25.6667C22.353 39.6621 19.6704 36.972 19.675 33.6583C19.6786 31.0608 21.3532 28.7607 23.824 27.9593C24.1742 29.1303 25.1372 30.0157 26.3333 30.2667V39.6667ZM27 29C25.8954 29 25 28.1046 25 27C25 25.8954 25.8954 25 27 25C28.1046 25 29 25.8954 29 27C29 28.1046 28.1045 29 27 29ZM33.6556 34.3222C31.0599 34.3175 28.7617 32.6441 27.96 30.1753C29.1306 29.8251 30.0157 28.8624 30.2667 27.6667H39.6667V28.3333C39.6605 31.6471 36.9693 34.3284 33.6556 34.3222Z" fill="#1C5BDE"/>
</svg>
