<svg width="54" height="54" viewBox="0 0 54 54" fill="none" xmlns="http://www.w3.org/2000/svg">
<path d="M41.4 17.2667H12.6C11.7164 17.2667 11 17.9831 11 18.8667V27.4C11 28.2836 11.7164 29 12.6 29H41.4C42.2836 29 43 28.2836 43 27.4V18.8667C43 17.9831 42.2836 17.2667 41.4 17.2667ZM12.6 18.3333H41.4C41.6945 18.3333 41.9333 18.5721 41.9333 18.8667V25.8H12.0667V18.8667C12.0667 18.5721 12.3055 18.3333 12.6 18.3333ZM41.4 27.9333H12.6C12.3055 27.9333 12.0667 27.6945 12.0667 27.4V26.8667H41.9333V27.4C41.9333 27.6945 41.6945 27.9333 41.4 27.9333Z" fill="#1C5BDE"/>
<path d="M27.8747 31.6667C27.8747 31.3721 27.6359 31.1333 27.3414 31.1333C27.0469 31.1333 26.8081 31.3721 26.8081 31.6667C26.8203 32.082 26.7206 32.4932 26.5195 32.857C25.9943 33.8966 25.9943 35.1242 26.5195 36.1638C26.9042 36.9117 26.9042 37.7997 26.5195 38.5477C26.2484 39.0555 26.1125 39.6245 26.1253 40.2C26.1253 40.4945 26.3641 40.7333 26.6586 40.7333C26.9531 40.7333 27.1919 40.4945 27.1919 40.2C27.1797 39.7841 27.2794 39.3727 27.4805 39.0086C28.0055 37.9687 28.0055 36.7417 27.4805 35.7018C27.0958 34.9542 27.0958 34.0667 27.4805 33.319C27.7518 32.8112 27.8878 32.2422 27.8747 31.6667Z" fill="#1C5BDE"/>
<path d="M19.3414 31.6667C19.3414 31.3721 19.1026 31.1333 18.8081 31.1333C18.5135 31.1333 18.2747 31.3721 18.2747 31.6667C18.287 32.082 18.1872 32.4932 17.9862 32.857C17.4609 33.8966 17.4609 35.1242 17.9862 36.1638C18.3708 36.9117 18.3708 37.7997 17.9862 38.5477C17.7151 39.0555 17.5792 39.6245 17.5919 40.2C17.5919 40.4945 17.8307 40.7333 18.1253 40.7333C18.4198 40.7333 18.6586 40.4945 18.6586 40.2C18.6463 39.7841 18.7461 39.3727 18.9471 39.0086C19.4721 37.9687 19.4721 36.7417 18.9471 35.7018C18.5625 34.9542 18.5625 34.0667 18.9471 33.319C19.2185 32.8112 19.3544 32.2422 19.3414 31.6667Z" fill="#1C5BDE"/>
<path d="M36.4081 31.6667C36.4081 31.3721 36.1693 31.1333 35.8748 31.1333C35.5802 31.1333 35.3414 31.3721 35.3414 31.6667C35.3537 32.082 35.2539 32.4932 35.0529 32.857C34.5276 33.8966 34.5276 35.1242 35.0529 36.1638C35.4375 36.9117 35.4375 37.7997 35.0529 38.5477C34.7818 39.0555 34.6458 39.6245 34.6586 40.2C34.6586 40.4945 34.8974 40.7333 35.1919 40.7333C35.4865 40.7333 35.7253 40.4945 35.7253 40.2C35.713 39.7841 35.8128 39.3727 36.0138 39.0086C36.5388 37.9687 36.5388 36.7417 36.0138 35.7018C35.6292 34.9542 35.6292 34.0667 36.0138 33.319C36.2852 32.8112 36.4211 32.2422 36.4081 31.6667Z" fill="#1C5BDE"/>
<path d="M33.9333 25.2667H40.3333C40.6279 25.2667 40.8667 25.0279 40.8667 24.7333V22.6C40.8667 22.3055 40.6279 22.0667 40.3333 22.0667H33.9333C33.6388 22.0667 33.4 22.3055 33.4 22.6V24.7333C33.4 25.0279 33.6388 25.2667 33.9333 25.2667ZM34.4667 23.1333H39.8V24.2H34.4667V23.1333Z" fill="#1C5BDE"/>
</svg>
