<svg width="65" height="70" viewBox="0 0 65 70" fill="none" xmlns="http://www.w3.org/2000/svg">
<g clip-path="url(#clip0)">
<path d="M51.1801 65.32C51.5475 65.3224 51.9029 65.189 52.1779 64.9454C52.4529 64.7017 52.6282 64.3651 52.6701 64C52.6651 63.7895 52.6183 63.5821 52.5325 63.3899C52.4466 63.1976 52.3235 63.0243 52.1701 62.88L3.36012 7.05003C3.17622 6.81133 2.91512 6.64391 2.62144 6.57642C2.32777 6.50893 2.01977 6.54556 1.75012 6.68003C1.49585 6.77441 1.2759 6.94318 1.11894 7.16436C0.961974 7.38554 0.875267 7.64887 0.870117 7.92003V63.83C0.875286 64.1918 1.02128 64.5372 1.2771 64.7931C1.53291 65.0489 1.87838 65.1949 2.24012 65.2H51.1801V65.32ZM48.0601 62.46H38.4801V60.46C38.4801 60.0967 38.3358 59.7482 38.0789 59.4913C37.8219 59.2344 37.4735 59.09 37.1101 59.09C36.7468 59.09 36.3983 59.2344 36.1414 59.4913C35.8845 59.7482 35.7401 60.0967 35.7401 60.46V62.46H31.6301V60.46C31.6301 60.0967 31.4858 59.7482 31.2289 59.4913C30.9719 59.2344 30.6235 59.09 30.2601 59.09C29.8968 59.09 29.5483 59.2344 29.2914 59.4913C29.0345 59.7482 28.8901 60.0967 28.8901 60.46V62.46H24.7801V60.46C24.7801 60.0967 24.6358 59.7482 24.3789 59.4913C24.1219 59.2344 23.7735 59.09 23.4101 59.09C23.0468 59.09 22.6983 59.2344 22.4414 59.4913C22.1845 59.7482 22.0401 60.0967 22.0401 60.46V62.46H17.9301V60.46C17.9301 60.0967 17.7858 59.7482 17.5289 59.4913C17.2719 59.2344 16.9235 59.09 16.5601 59.09C16.1968 59.09 15.8483 59.2344 15.5914 59.4913C15.3345 59.7482 15.1901 60.0967 15.1901 60.46V62.46H11.0801V60.46C11.0801 60.0967 10.9358 59.7482 10.6789 59.4913C10.4219 59.2344 10.0735 59.09 9.71012 59.09C9.34677 59.09 8.99831 59.2344 8.74138 59.4913C8.48446 59.7482 8.34012 60.0967 8.34012 60.46V62.46H3.74012V57.6H5.74012C6.10346 57.6 6.45193 57.4557 6.70885 57.1988C6.96578 56.9418 7.11012 56.5934 7.11012 56.23C7.11012 55.8667 6.96578 55.5182 6.70885 55.2613C6.45193 55.0044 6.10346 54.86 5.74012 54.86H3.74012V50.75H5.74012C5.92919 50.7662 6.11957 50.743 6.29918 50.6817C6.4788 50.6205 6.64373 50.5226 6.78353 50.3943C6.92332 50.2659 7.03493 50.11 7.11128 49.9362C7.18763 49.7625 7.22706 49.5748 7.22706 49.385C7.22706 49.1953 7.18763 49.0076 7.11128 48.8338C7.03493 48.6601 6.92332 48.5041 6.78353 48.3758C6.64373 48.2475 6.4788 48.1496 6.29918 48.0883C6.11957 48.0271 5.92919 48.0038 5.74012 48.02H3.74012V43.91H5.74012C6.10346 43.91 6.45193 43.7657 6.70885 43.5088C6.96578 43.2518 7.11012 42.9034 7.11012 42.54C7.11012 42.1767 6.96578 41.8282 6.70885 41.5713C6.45193 41.3144 6.10346 41.17 5.74012 41.17H3.74012V37.06H5.74012C6.10346 37.06 6.45193 36.9157 6.70885 36.6588C6.96578 36.4018 7.11012 36.0534 7.11012 35.69C7.11012 35.3267 6.96578 34.9782 6.70885 34.7213C6.45193 34.4644 6.10346 34.32 5.74012 34.32H3.74012V30.21H5.74012C6.10346 30.21 6.45193 30.0657 6.70885 29.8088C6.96578 29.5518 7.11012 29.2034 7.11012 28.84C7.11012 28.4767 6.96578 28.1282 6.70885 27.8713C6.45193 27.6144 6.10346 27.47 5.74012 27.47H3.74012V23.36H5.74012C6.10346 23.36 6.45193 23.2157 6.70885 22.9588C6.96578 22.7018 7.11012 22.3534 7.11012 21.99C7.11012 21.6267 6.96578 21.2782 6.70885 21.0213C6.45193 20.7644 6.10346 20.62 5.74012 20.62H3.74012V11.91L48.0601 62.46Z" fill="#222831" stroke="#222831" stroke-width="0.8" stroke-miterlimit="10"/>
<path d="M13.65 52.8901H28.71C29.001 52.8875 29.2792 52.7707 29.485 52.565C29.6907 52.3593 29.8074 52.081 29.81 51.7901C29.8066 51.621 29.7695 51.4543 29.7008 51.2997C29.6321 51.1452 29.5333 51.0059 29.41 50.8901L14.56 33.8301C14.4235 33.6487 14.2293 33.5193 14.0094 33.4629C13.7895 33.4066 13.557 33.4267 13.35 33.5201C13.1426 33.6229 12.9676 33.781 12.8441 33.9768C12.7206 34.1726 12.6535 34.3986 12.65 34.6301V51.7901C12.636 51.9296 12.6515 52.0704 12.6954 52.2035C12.7394 52.3367 12.8108 52.459 12.9051 52.5628C12.9994 52.6665 13.1144 52.7492 13.2428 52.8056C13.3711 52.862 13.5099 52.8908 13.65 52.8901ZM14.76 37.5401L26.1 50.5901H14.76V37.5401Z" fill="#222831" stroke="#222831" stroke-miterlimit="10"/>
<path d="M63.4999 15.7701H54.9999C54.6373 15.7727 54.2904 15.9179 54.034 16.1742C53.7777 16.4306 53.6325 16.7775 53.6299 17.1401V56.4801C53.6299 56.6101 53.6299 56.6101 53.7499 56.7301V56.8601L57.9999 64.7001C58.1139 64.93 58.2911 65.1227 58.5107 65.2556C58.7303 65.3884 58.9833 65.4559 59.2399 65.4501C59.4977 65.4554 59.7518 65.3878 59.9729 65.2551C60.194 65.1225 60.3732 64.9301 60.4899 64.7001L64.7199 56.8601V56.7301C64.7199 56.6101 64.7199 56.6101 64.8399 56.4801V17.1401C64.8374 16.7826 64.6964 16.4401 64.4465 16.1846C64.1965 15.929 63.8572 15.7804 63.4999 15.7701ZM56.4099 25.4801H62.1299V54.6101H56.4099V25.4801ZM62.0099 18.4801V22.5801H56.2799V18.4801H62.0099ZM59.2699 61.0001L57.3999 57.4801H61.1399L59.2699 61.0001Z" fill="#EC6B08" stroke="#EC6B08" stroke-width="0.5" stroke-miterlimit="10"/>
</g>
<defs>
<clipPath id="clip0">
<rect width="65" height="70" fill="white"/>
</clipPath>
</defs>
</svg>
