<svg width="54" height="54" viewBox="0 0 54 54" fill="none" xmlns="http://www.w3.org/2000/svg">
<path d="M39.0237 28.1966L32.778 29.8678L31.2061 28.9604V25.0365L32.7795 24.1275L39.0237 25.8003C39.0586 25.8096 39.0935 25.8143 39.1285 25.8143C39.307 25.8143 39.47 25.6955 39.5181 25.5139C39.5764 25.2981 39.449 25.0768 39.2317 25.0186L33.7685 23.5554L36.2105 22.1473L38.5928 22.7869C38.6286 22.7962 38.6635 22.8009 38.6992 22.8009C38.877 22.8009 39.0415 22.6821 39.0896 22.5005C39.1471 22.2847 39.019 22.0635 38.804 22.006L37.2003 21.576L38.9779 20.5498C39.1696 20.438 39.2356 20.1912 39.1246 19.9971C39.0136 19.803 38.766 19.7378 38.5727 19.8496L36.7974 20.8742L37.2259 19.2729C37.2825 19.0571 37.1568 18.8358 36.9394 18.7784C36.7236 18.7225 36.5024 18.8482 36.4442 19.0648L35.8061 21.4471L33.3656 22.8568L34.8304 17.3951C34.887 17.1793 34.7605 16.9573 34.5439 16.8999C34.3274 16.8432 34.1077 16.9697 34.0479 17.1871L32.3759 23.4297L30.8032 24.3386L27.4048 22.3755V20.5583L31.9746 15.987C32.1321 15.8294 32.1321 15.5733 31.9746 15.4157C31.817 15.2581 31.5608 15.2581 31.4032 15.4157L27.4048 19.4149V16.5971L29.1498 14.8521C29.3074 14.6945 29.3074 14.4384 29.1498 14.2808C28.9922 14.1232 28.7361 14.1232 28.5785 14.2808L27.4056 15.4545V13.4044C27.404 13.1809 27.2224 13 26.9996 13C26.7776 13 26.5952 13.1809 26.5952 13.4044V15.4553L25.4215 14.2816C25.2639 14.124 25.0078 14.124 24.8494 14.2816C24.6918 14.4392 24.6918 14.6961 24.8494 14.8529L26.5952 16.5979V19.4157L22.5967 15.4165C22.4384 15.2589 22.1822 15.2589 22.0246 15.4165C21.8671 15.574 21.8671 15.8302 22.0246 15.9878L26.5952 20.5591V22.3763L23.1968 24.3379L21.6241 23.4289L19.9528 17.1847C19.8938 16.969 19.6742 16.8424 19.456 16.8983C19.2395 16.9565 19.1129 17.1785 19.1704 17.3936L20.6352 22.856L18.1946 21.4463L17.5566 19.064C17.4983 18.8475 17.2771 18.7209 17.0605 18.7776C16.844 18.8343 16.7174 19.0571 16.7741 19.2721L17.2026 20.8735L15.4273 19.8488C15.2356 19.7386 14.9872 19.8038 14.8754 19.9963C14.7628 20.1896 14.828 20.4372 15.0229 20.5482L16.8005 21.5744L15.1968 22.0052C14.9802 22.0627 14.8521 22.2847 14.9103 22.4997C14.9608 22.6806 15.123 22.8001 15.3016 22.8001C15.3357 22.8001 15.3706 22.7962 15.4064 22.7861L17.7894 22.1465L20.2307 23.5554L14.7667 25.0186C14.5502 25.0761 14.4221 25.2989 14.4803 25.5139C14.5292 25.6947 14.6914 25.8143 14.87 25.8143C14.9049 25.8143 14.9398 25.8096 14.974 25.8003L21.2189 24.1275L22.7923 25.0357V28.9604L21.2189 29.8678L14.974 28.1958C14.7613 28.1407 14.5377 28.2672 14.4803 28.4815C14.4221 28.698 14.5502 28.9185 14.7667 28.9767L20.2307 30.4407L17.7894 31.8504L15.4071 31.2108C15.189 31.1541 14.9701 31.2806 14.9111 31.4972C14.8544 31.713 14.9817 31.9342 15.1975 31.9909L16.8005 32.4209L15.0237 33.4479C14.8312 33.5589 14.7652 33.8057 14.8762 33.9998C14.9515 34.1302 15.0873 34.2024 15.2263 34.2024C15.2953 34.2024 15.3652 34.1853 15.4281 34.1488L17.2049 33.1219L16.7749 34.724C16.7182 34.9391 16.8463 35.1611 17.0613 35.2185C17.0962 35.2278 17.1312 35.2333 17.1653 35.2333C17.3446 35.2333 17.5077 35.1145 17.5558 34.9336L18.1939 32.5506L20.6336 31.1432L19.1688 36.6041C19.1122 36.8199 19.2395 37.0411 19.4553 37.0994C19.491 37.1095 19.5251 37.1133 19.5601 37.1133C19.7386 37.1133 19.9032 36.9946 19.9505 36.8129L21.6218 30.5696L23.196 29.6614L26.5944 31.6245V33.4425L22.0239 38.0146C21.8663 38.1714 21.8663 38.4283 22.0239 38.5859C22.1814 38.7435 22.4376 38.7435 22.596 38.5859L26.5944 34.5859V37.4037L24.8486 39.1479C24.691 39.3047 24.691 39.5624 24.8486 39.7192C25.007 39.876 25.2631 39.876 25.4207 39.7192L26.5944 38.5455V40.5971C26.5944 40.8191 26.776 41.0016 26.9988 41.0016C27.2216 41.0016 27.4032 40.8191 27.4032 40.5971V38.5455L28.5762 39.7192C28.6553 39.7991 28.7578 39.8364 28.8626 39.8364C28.9666 39.8364 29.0699 39.7968 29.1483 39.7192C29.3051 39.5624 29.3051 39.3047 29.1483 39.1479L27.4032 37.4037V34.5859L31.4017 38.5859C31.4809 38.6658 31.5841 38.7039 31.6874 38.7039C31.7914 38.7039 31.8954 38.6627 31.9738 38.5859C32.1321 38.4283 32.1321 38.1714 31.9738 38.0146L27.4032 33.4425V31.6245L30.8001 29.6629L32.372 30.5711L34.0433 36.816C34.0929 36.9977 34.2575 37.1164 34.4345 37.1164C34.4694 37.1164 34.5044 37.1118 34.5401 37.1017C34.7566 37.045 34.8832 36.8215 34.8265 36.6072L33.3602 31.1448L35.803 32.5529L36.4411 34.9352C36.49 35.1153 36.6522 35.2356 36.8308 35.2356C36.8641 35.2356 36.8999 35.2317 36.9348 35.2216C37.1514 35.1634 37.2787 34.9406 37.2212 34.7264L36.7912 33.1258L38.568 34.1504C38.6332 34.1884 38.7023 34.2055 38.7706 34.2055C38.9096 34.2055 39.0462 34.1318 39.1207 34.0037C39.2333 33.8089 39.1673 33.5628 38.9732 33.4494L37.1964 32.424L38.7986 31.9948C39.0151 31.9373 39.1432 31.7153 39.0842 31.4987C39.026 31.2837 38.8079 31.1549 38.5882 31.2123L36.2098 31.8519L33.7677 30.4423L39.2309 28.979C39.449 28.9208 39.5756 28.6988 39.5174 28.483C39.4607 28.2672 39.2395 28.1399 39.0237 28.1966ZM30.3972 25.5046V28.4947V28.9627L29.9928 29.1964L27.404 30.6922L26.9996 30.9259L26.5952 30.6922L24.0056 29.1964L23.6012 28.9627V28.4939V25.5038V25.0357L24.0048 24.8028L26.5952 23.3086L26.9996 23.0749L27.404 23.3086L29.9936 24.8036L30.3972 25.0365V25.5046Z" fill="#1C5BDE"/>
</svg>
