<svg width="38" height="70" viewBox="0 0 38 70" fill="none" xmlns="http://www.w3.org/2000/svg">
<g clip-path="url(#clip0)">
<path d="M38 66.4912L34.5378 38.2657C34.2823 36.1319 33.2543 34.1655 31.6479 32.738C30.0415 31.3105 27.9679 30.5207 25.8189 30.5179H12.1811C10.0369 30.5198 7.96727 31.3051 6.36157 32.7261C4.75586 34.1471 3.72475 36.1059 3.4622 38.234L-2.69637e-05 66.4912C-0.0346322 66.7553 -0.0123927 67.0237 0.0652024 67.2784C0.142797 67.5331 0.273956 67.7684 0.449882 67.9683C0.625808 68.1682 0.842438 68.3282 1.08525 68.4375C1.32806 68.5469 1.59145 68.6031 1.85775 68.6023H36.1633C36.6585 68.6014 37.1331 68.404 37.4828 68.0534C37.5135 68.028 37.5418 67.9997 37.5672 67.969C37.739 67.7669 37.8664 67.5308 37.941 67.2762C38.0155 67.0216 38.0356 66.7541 38 66.4912ZM7.17775 38.7196C7.32715 37.4974 7.91832 36.372 8.83988 35.5554C9.76144 34.7388 10.9498 34.2874 12.1811 34.2862H25.8189C27.0502 34.2874 28.2385 34.7388 29.1601 35.5554C30.0816 36.372 30.6728 37.4974 30.8222 38.7196V38.8251H7.1672L7.17775 38.7196ZM26.3255 64.8551L25.8505 54.8907C25.8267 54.3951 25.6071 53.9294 25.2399 53.5958C24.8727 53.2623 24.388 53.0883 23.8925 53.112C23.397 53.1358 22.9312 53.3555 22.5976 53.7227C22.2641 54.0899 22.0901 54.5746 22.1139 55.0701L22.5783 64.8551H15.4216L15.8861 55.0701C15.8979 54.8247 15.8612 54.5795 15.7782 54.3483C15.6952 54.1171 15.5675 53.9045 15.4023 53.7227C15.0688 53.3555 14.603 53.1358 14.1075 53.112C13.612 53.0883 13.1273 53.2623 12.7601 53.5958C12.3929 53.9294 12.1732 54.3951 12.1494 54.8907L11.6744 64.8551H3.95831L6.70275 42.5618H31.2972L34.0416 64.8551H26.3255Z" fill="#222831"/>
<path d="M16.4562 6.71511C16.4562 6.04043 16.7242 5.39338 17.2013 4.91631C17.6784 4.43924 18.3254 4.17122 19.0001 4.17122C19.6748 4.17122 20.3218 4.43924 20.7989 4.91631C21.276 5.39338 21.544 6.04043 21.544 6.71511V30.5179H25.3334V6.71511C25.3334 5.0354 24.6662 3.4245 23.4784 2.23677C22.2907 1.04903 20.6798 0.381775 19.0001 0.381775C17.3204 0.381775 15.7095 1.04903 14.5217 2.23677C13.334 3.4245 12.6667 5.0354 12.6667 6.71511V30.5179H16.414L16.4562 6.71511Z" fill="#EC6B08"/>
</g>
<defs>
<clipPath id="clip0">
<rect width="38" height="70" fill="white"/>
</clipPath>
</defs>
</svg>
