<svg width="44" height="44" viewBox="0 0 44 44" fill="none" xmlns="http://www.w3.org/2000/svg">
<rect x="1" y="1" width="42" height="42" rx="21" stroke="#EC6B08" stroke-width="2"/>
<path d="M33.7255 28.7188L28.7161 25.3778C28.0803 24.9572 27.2282 25.0956 26.7582 25.6958L25.299 27.5721C25.1115 27.8194 24.7706 27.8911 24.4993 27.7404L24.2217 27.5874C23.3015 27.0858 22.1566 26.4613 19.8499 24.1536C17.5431 21.8458 16.9174 20.7 16.4159 19.7814L16.2637 19.5038C16.1109 19.2326 16.1813 18.8902 16.4286 18.7012L18.3036 17.2423C18.9035 16.7722 19.042 15.9202 18.622 15.2843L15.2812 10.2744C14.8507 9.62684 13.987 9.43243 13.3206 9.83309L11.2258 11.0915C10.5676 11.4785 10.0847 12.1052 9.87834 12.8404C9.12402 15.5891 9.69149 20.3329 16.679 27.3217C22.2375 32.8801 26.3755 34.3749 29.2197 34.3749C29.8743 34.3777 30.5263 34.2926 31.1582 34.1217C31.8934 33.9156 32.5202 33.4326 32.9069 32.7742L34.1665 30.6805C34.5677 30.0139 34.3734 29.1496 33.7255 28.7188ZM33.4558 30.2573L32.1991 32.3522C31.9214 32.8275 31.4706 33.1769 30.9412 33.3273C28.4038 34.024 23.9709 33.4469 17.2626 26.7381C10.5543 20.0293 9.97733 15.5965 10.6739 13.0586C10.8246 12.5285 11.1744 12.077 11.6502 11.7989L13.745 10.5421C14.0341 10.3681 14.409 10.4525 14.5958 10.7335L16.4106 13.4582L17.9337 15.7429C18.1161 16.0188 18.0562 16.3885 17.796 16.5926L15.9206 18.0515C15.3499 18.4879 15.1869 19.2776 15.5383 19.9043L15.6872 20.1749C16.2143 21.1417 16.8697 22.3445 19.2622 24.7368C21.6548 27.1291 22.8571 27.7845 23.8234 28.3116L24.0943 28.461C24.721 28.8123 25.5106 28.6494 25.947 28.0786L27.4058 26.2031C27.61 25.943 27.9795 25.8831 28.2554 26.0654L33.2645 29.4064C33.5457 29.593 33.63 29.9681 33.4558 30.2573Z" fill="#EC6B08"/>
<path d="M23.7875 13.2C27.6586 13.2043 30.7957 16.3414 30.8 20.2125C30.8 20.4403 30.9847 20.625 31.2125 20.625C31.4403 20.625 31.625 20.4403 31.625 20.2125C31.6202 15.8859 28.1141 12.3797 23.7875 12.375C23.5597 12.375 23.375 12.5597 23.375 12.7875C23.375 13.0153 23.5597 13.2 23.7875 13.2Z" fill="#EC6B08"/>
<path d="M23.7678 15.9107C26.1534 15.9135 28.0865 17.8466 28.0893 20.2322C28.0893 20.4491 28.2652 20.625 28.4822 20.625C28.6991 20.625 28.875 20.4491 28.875 20.2322C28.8717 17.4129 26.5871 15.1282 23.7678 15.125C23.5509 15.125 23.375 15.3009 23.375 15.5178C23.375 15.7348 23.5509 15.9107 23.7678 15.9107Z" fill="#EC6B08"/>
<path d="M23.7187 18.5625C24.6675 18.5636 25.4364 19.3325 25.4375 20.2813C25.4375 20.4711 25.5914 20.625 25.7813 20.625C25.9711 20.625 26.125 20.4711 26.125 20.2813C26.1235 18.9529 25.0471 17.8765 23.7187 17.875C23.5289 17.875 23.375 18.0289 23.375 18.2187C23.375 18.4086 23.5289 18.5625 23.7187 18.5625Z" fill="#EC6B08"/>
</svg>
