<svg width="65" height="64" viewBox="0 0 65 64" fill="none" xmlns="http://www.w3.org/2000/svg">
<path d="M25.5761 38.5644V39.2243V45.6133C25.5663 45.7197 25.5663 45.8268 25.5761 45.9332C25.676 46.3758 25.9233 46.7714 26.2776 47.0548C26.6319 47.3382 27.0721 47.4928 27.5258 47.493H38.1642C38.6945 47.493 39.2032 47.2823 39.5782 46.9073C39.9532 46.5323 40.1639 46.0237 40.1639 45.4933V38.5644C40.1639 38.034 39.9532 37.5254 39.5782 37.1504C39.2032 36.7754 38.6945 36.5647 38.1642 36.5647H27.5758C27.0455 36.5647 26.5368 36.7754 26.1618 37.1504C25.7868 37.5254 25.5761 38.034 25.5761 38.5644ZM32.575 40.3241C32.7638 40.354 32.9562 40.354 33.145 40.3241L36.3845 39.8142V43.7336H29.3555V39.8142H29.5455L32.575 40.3241Z" fill="#EC6B08"/>
<path d="M62.9903 13.1383H47.4127C46.9538 9.93938 45.3583 7.01269 42.9181 4.89387C40.478 2.77504 37.3565 1.60579 34.1248 1.6001H31.6152C28.3835 1.60579 25.262 2.77504 22.8219 4.89387C20.3817 7.01269 18.7862 9.93938 18.3273 13.1383H2.7597C2.26367 13.1382 1.78751 13.3332 1.43397 13.6811C1.08043 14.0291 0.877869 14.502 0.869995 14.998V60.4509C0.872638 60.9504 1.0729 61.4284 1.427 61.7807C1.7811 62.1329 2.26025 62.3306 2.7597 62.3306H62.9903C63.4888 62.3306 63.9669 62.1326 64.3194 61.7801C64.672 61.4276 64.87 60.9494 64.87 60.4509V14.998C64.8647 14.5029 64.6644 14.03 64.3124 13.6818C63.9605 13.3336 63.4854 13.1383 62.9903 13.1383ZM31.6152 5.35951H34.1248C36.3587 5.36263 38.5227 6.13923 40.2488 7.55731C41.9749 8.97539 43.1567 10.9474 43.5933 13.1383H22.1467C22.5833 10.9474 23.7651 8.97539 25.4912 7.55731C27.2173 6.13923 29.3813 5.36263 31.6152 5.35951V5.35951ZM4.63941 16.8977H61.1006V32.1153L32.865 36.5646L4.63941 32.1153V16.8977ZM32.4151 39.8141H29.3356H29.5255L32.5251 40.2941C32.7172 40.3241 32.9128 40.3241 33.105 40.2941L36.3345 39.7841L32.4151 39.8141ZM36.3345 39.7841L61.0406 35.8947V58.5712H4.63941V35.9247L29.3356 39.8141L36.3345 39.7841Z" fill="#222831"/>
</svg>
