<svg width="64" height="64" viewBox="0 0 64 64" fill="none" xmlns="http://www.w3.org/2000/svg">
<path d="M58.2992 52.7721L49.2377 36.8511C49.6956 36.6225 50.0743 36.2615 50.3245 35.8149C50.5747 35.3684 50.6848 34.857 50.6407 34.347L49.9684 28.7152L53.8658 24.6717C54.2896 24.2158 54.5299 23.6195 54.5407 22.9972C54.5515 22.375 54.332 21.7707 53.9243 21.3004L50.0269 17.1399L50.8161 11.4497C50.8619 10.8479 50.6904 10.2496 50.3329 9.76341C49.9754 9.27718 49.4555 8.93518 48.8674 8.79943L43.2941 7.69841L40.6049 2.69023C40.3343 2.13033 39.8576 1.69688 39.2745 1.48073C38.6914 1.26458 38.0473 1.28251 37.4772 1.53075H37.4187L32.3034 3.92766L27.2562 1.46254C26.6897 1.16399 26.0293 1.0976 25.4147 1.27741C24.8105 1.46576 24.3058 1.88632 24.0116 2.44664L21.2542 7.40611L15.6809 8.38046C15.0591 8.50144 14.506 8.85267 14.132 9.36391C13.7581 9.87515 13.5909 10.5087 13.664 11.1379L14.3363 16.7697L10.4388 20.8132C10.0151 21.2691 9.77474 21.8654 9.76395 22.4877C9.75316 23.1099 9.9727 23.7143 10.3804 24.1845L14.2778 28.345L13.4788 34.0352C13.4287 34.5782 13.5566 35.1228 13.8431 35.5868C14.1295 36.0508 14.5591 36.409 15.067 36.6075L5.99578 52.7721C5.89081 52.9596 5.83569 53.171 5.83569 53.3859C5.83569 53.6009 5.89081 53.8122 5.99578 53.9998C6.10149 54.1671 6.24442 54.3078 6.41342 54.4109C6.58242 54.514 6.77294 54.5767 6.97013 54.5941H16.7819L21.2542 62.389C21.3643 62.5689 21.517 62.7191 21.6988 62.8261C21.8806 62.9332 22.0859 62.9938 22.2967 63.0028C22.5091 63.0012 22.7173 62.9435 22.9004 62.8358C23.0834 62.728 23.2348 62.5739 23.3393 62.389L32.1085 47.4424L40.8777 62.5643C40.9858 62.7461 41.138 62.8977 41.3202 63.005C41.5025 63.1123 41.7089 63.1718 41.9202 63.1782C42.132 63.18 42.3403 63.1237 42.5224 63.0155C42.7044 62.9073 42.8534 62.7512 42.9531 62.5643L47.3961 54.5941H57.1397C57.3525 54.5945 57.5615 54.5377 57.7449 54.4298C57.9283 54.3218 58.0793 54.1665 58.1822 53.9803C58.333 53.8146 58.422 53.6021 58.4344 53.3785C58.4469 53.1549 58.3819 52.9339 58.2504 52.7526L58.2992 52.7721ZM22.3552 59.3197L18.5552 52.7721C18.4487 52.5911 18.2981 52.4399 18.1176 52.3326C17.937 52.2253 17.7323 52.1653 17.5224 52.1582H9.065L17.5224 37.2214L21.0106 37.8352L23.6998 42.7947C23.9704 43.3546 24.4471 43.788 25.0302 44.0042C25.6133 44.2203 26.2573 44.2024 26.8275 43.9542H26.886L29.3803 42.7947L30.5982 44.9383L22.3552 59.3197ZM25.9019 41.7813H25.8434L23.1542 36.666C22.9783 36.3526 22.7316 36.0846 22.4339 35.8833C22.1362 35.682 21.7957 35.553 21.4393 35.5065L15.8075 34.4639L16.5968 28.8322C16.6585 28.4722 16.636 28.1028 16.5312 27.7529C16.4264 27.403 16.2421 27.0821 15.9927 26.8153L12.1927 22.645L16.0901 18.6112C16.3469 18.3488 16.5374 18.0289 16.6459 17.6782C16.7543 17.3274 16.7776 16.9558 16.7137 16.5943L16.0414 11.0307C16.0446 10.9827 16.0654 10.9376 16.0998 10.904L21.6731 9.92969C22.0311 9.86573 22.3705 9.72336 22.667 9.51279C22.9635 9.30223 23.2097 9.02867 23.388 8.71174L26.1552 3.73279L31.1731 6.17842C31.5114 6.36092 31.8898 6.45646 32.2741 6.45646C32.6585 6.45646 33.0369 6.36092 33.3752 6.17842L38.4613 3.84971H38.5197L41.209 8.93584C41.3779 9.24301 41.6151 9.50729 41.9023 9.70832C42.1894 9.90934 42.5189 10.0417 42.8654 10.0953L48.4387 11.1963L47.6397 16.8379C47.5823 17.1986 47.6077 17.5677 47.714 17.9171C47.8204 18.2666 48.0049 18.5872 48.2536 18.8548L52.151 23.0153L48.2536 27.0588C47.9854 27.3146 47.7839 27.6322 47.6667 27.9837C47.5495 28.3353 47.5202 28.7102 47.5812 29.0758L48.2536 34.7075L42.7387 35.6332C42.3807 35.6971 42.0413 35.8395 41.7448 36.0501C41.4484 36.2606 41.2022 36.5342 41.0238 36.8511L38.2762 41.8106L33.2485 39.3649C32.9102 39.1824 32.5318 39.0869 32.1475 39.0869C31.7631 39.0869 31.3847 39.1824 31.0464 39.3649L25.9019 41.7813ZM46.7238 52.1582C46.511 52.1579 46.302 52.2146 46.1186 52.3226C45.9352 52.4306 45.7842 52.5858 45.6813 52.7721L41.891 59.4659L33.2777 44.568C33.2291 44.4067 33.1422 44.2596 33.0244 44.1393L31.6798 41.7521L32.1085 41.567L37.1264 44.0126C37.4713 44.184 37.8521 44.2709 38.2372 44.266C38.6706 44.2734 39.098 44.1632 39.4738 43.947C39.8495 43.7308 40.1596 43.4167 40.371 43.0383L43.1284 38.0788L46.8018 37.4065L55.1715 52.1582H46.7238Z" fill="#222831" stroke="#222831" stroke-miterlimit="10"/>
<path d="M43.5377 22.7719C43.5377 20.5076 42.8662 18.2941 41.6082 16.4114C40.3502 14.5287 38.5622 13.0612 36.4702 12.1947C34.3782 11.3282 32.0763 11.1015 29.8555 11.5432C27.6346 11.985 25.5947 13.0754 23.9936 14.6765C22.3924 16.2776 21.3021 18.3176 20.8603 20.5384C20.4186 22.7592 20.6453 25.0612 21.5118 27.1531C22.3783 29.2451 23.8457 31.0331 25.7285 32.2911C27.6112 33.5491 29.8247 34.2206 32.089 34.2206C35.123 34.2129 38.0305 33.0042 40.1759 30.8588C42.3213 28.7135 43.5299 25.8059 43.5377 22.7719V22.7719ZM32.089 32.5642C30.1506 32.5622 28.2564 31.985 26.6463 30.9057C25.0362 29.8264 23.7827 28.2935 23.0445 26.5012C22.3063 24.7089 22.1166 22.7378 22.4995 20.8376C22.8824 18.9374 23.8207 17.1936 25.1954 15.8271C26.5702 14.4605 28.3195 13.5327 30.222 13.1612C32.1244 12.7897 34.0943 12.9911 35.8822 13.74C37.6701 14.489 39.1954 15.7516 40.2651 17.3682C41.3348 18.9847 41.9006 20.8823 41.891 22.8206C41.8705 25.4086 40.8293 27.8838 38.9939 29.7083C37.1584 31.5328 34.677 32.5591 32.089 32.5642V32.5642Z" fill="#EC6B08" stroke="#EC6B08" stroke-width="2" stroke-miterlimit="10"/>
</svg>
