<svg width="64" height="64" viewBox="0 0 64 64" fill="none" xmlns="http://www.w3.org/2000/svg">
<path d="M58.3622 17.7863V17.7371C58.3622 17.1364 58.3622 16.4963 58.3622 15.7675C58.3279 14.0859 57.6612 12.479 56.4949 11.2671C55.3287 10.0552 53.7485 9.32733 52.0695 9.22859C44.7624 8.87407 39.159 6.47122 34.373 1.80337C33.6294 1.11116 32.6512 0.726318 31.6353 0.726318C30.6194 0.726318 29.6412 1.11116 28.8976 1.80337C24.0131 6.47122 18.4097 8.87407 11.1618 9.23844C9.4844 9.33703 7.90561 10.0635 6.73958 11.2733C5.57355 12.4832 4.90574 14.0876 4.86904 15.7675C4.86904 16.4766 4.86904 17.1167 4.86904 17.7371V17.8553C4.73117 25.2411 4.55391 34.4389 7.63627 42.7898C9.25615 47.2496 11.8577 51.2882 15.2486 54.6072C19.5072 58.6157 24.5933 61.6411 30.1483 63.4702C30.3488 63.5363 30.5526 63.5922 30.7589 63.6376C31.3438 63.7559 31.9465 63.7559 32.5315 63.6376C32.7377 63.5922 32.9415 63.5363 33.142 63.4702C38.6958 61.6448 43.7795 58.6188 48.0319 54.6072C51.4196 51.2857 54.0207 47.2478 55.6442 42.7898C58.7364 34.4094 58.5985 25.2017 58.4213 17.7962L58.3622 17.7863ZM52.1187 41.4998C48.8689 50.2938 42.2709 56.3404 31.8618 59.9644C31.8233 59.9759 31.7822 59.9759 31.7436 59.9644C31.6373 59.9937 31.525 59.9937 31.4187 59.9644C31.3833 59.9745 31.3457 59.9745 31.3103 59.9644C20.9111 56.3404 14.2835 50.3037 11.0436 41.5096C8.20744 33.8087 8.365 25.3691 8.51272 17.9242C8.51272 17.2841 8.51272 16.6144 8.57181 15.8758C8.58322 15.1274 8.87832 14.4112 9.39746 13.8719C9.91661 13.3327 10.6211 13.0106 11.3686 12.9708C15.1516 12.8108 18.8776 11.9909 22.3784 10.5482C25.726 9.12038 28.7733 7.07214 31.3596 4.51151C31.4232 4.45865 31.5033 4.42972 31.5861 4.42972C31.6688 4.42972 31.7489 4.45865 31.8126 4.51151C34.3988 7.07214 37.4461 9.12038 40.7937 10.5482C44.2945 11.9909 48.0205 12.8108 51.8036 12.9708C52.551 13.0106 53.2555 13.3327 53.7747 13.8719C54.2938 14.4112 54.5889 15.1274 54.6003 15.8758C54.6003 16.6144 54.6003 17.2841 54.6594 17.9242C54.8071 25.379 54.9549 33.8283 52.1187 41.5589V41.4998Z" fill="#222831"/>
<path d="M31.5861 16.4963C28.4698 16.4963 25.4234 17.4204 22.8323 19.1518C20.2412 20.8831 18.2216 23.3439 17.029 26.2231C15.8365 29.1022 15.5244 32.2703 16.1324 35.3267C16.7404 38.3832 18.241 41.1907 20.4446 43.3943C22.6482 45.5979 25.4557 47.0985 28.5122 47.7065C31.5686 48.3144 34.7367 48.0024 37.6158 46.8098C40.495 45.6173 42.9558 43.5977 44.6871 41.0066C46.4185 38.4155 47.3426 35.3691 47.3426 32.2528C47.3426 28.0739 45.6825 24.0662 42.7276 21.1113C39.7727 18.1564 35.765 16.4963 31.5861 16.4963V16.4963ZM31.5861 44.208C29.2091 44.2099 26.8849 43.5067 24.9076 42.1873C22.9304 40.8679 21.3889 38.9916 20.4784 36.7959C19.5678 34.6002 19.3291 32.1837 19.7923 29.8522C20.2556 27.5208 21.4001 25.3791 23.0809 23.6983C24.7617 22.0175 26.9033 20.873 29.2348 20.4098C31.5663 19.9465 33.9828 20.1853 36.1785 21.0958C38.3742 22.0064 40.2505 23.5478 41.5699 25.5251C42.8893 27.5023 43.5925 29.8265 43.5906 32.2035C43.5853 35.3857 42.3189 38.4361 40.0688 40.6862C37.8186 42.9364 34.7683 44.2028 31.5861 44.208V44.208Z" fill="#EC6B08"/>
<path d="M36.0964 27.3287L28.809 34.6161L26.8394 32.6465C26.4864 32.3301 26.0254 32.1613 25.5515 32.1747C25.0776 32.1881 24.6269 32.3828 24.2924 32.7187C23.9578 33.0545 23.7648 33.5059 23.7531 33.9799C23.7415 34.4538 23.9121 34.9141 24.2298 35.266L27.5189 38.5552C27.69 38.727 27.8934 38.8633 28.1173 38.9563C28.3412 39.0493 28.5813 39.0972 28.8238 39.0972C29.0662 39.0972 29.3063 39.0493 29.5302 38.9563C29.7542 38.8633 29.9575 38.727 30.1286 38.5552L38.7356 29.9482C39.0519 29.5951 39.2208 29.1342 39.2074 28.6603C39.194 28.1864 38.9993 27.7357 38.6634 27.4011C38.3276 27.0665 37.8761 26.8735 37.4022 26.8619C36.9283 26.8502 36.4679 27.0209 36.1161 27.3386L36.0964 27.3287Z" fill="#EC6B08"/>
</svg>
