<svg width="64" height="64" viewBox="0 0 64 64" fill="none" xmlns="http://www.w3.org/2000/svg">
<path d="M59.8139 20.2322C58.3199 16.6271 56.1282 13.3528 53.3647 10.5975C50.6013 7.84213 47.3206 5.66006 43.7111 4.17665C40.0012 2.58147 36.0052 1.75879 31.9669 1.75879C27.9286 1.75879 23.9327 2.58147 20.2228 4.17665C14.7488 6.48083 10.0777 10.351 6.79607 15.3012C3.51444 20.2514 1.76859 26.0609 1.77778 32C1.78154 37.935 3.53273 43.7376 6.81287 48.6838C10.093 53.6301 14.7569 57.5011 20.2228 59.8139C23.9404 61.4202 27.9502 62.2402 32 62.2222C36.0267 62.2226 40.0113 61.4032 43.7111 59.8139C49.1835 57.503 53.8558 53.6343 57.147 48.6891C60.4383 43.7439 62.2031 37.9403 62.2222 32C62.2345 27.9629 61.4146 23.9667 59.8139 20.2605V20.2322ZM54.9878 45.3261C52.6557 49.3537 49.3038 52.6958 45.2694 55.0161C41.2454 57.3719 36.6629 58.6048 32 58.5861C28.4271 58.6165 24.8876 57.8958 21.6111 56.4705C18.4445 55.1369 15.5601 53.2139 13.1111 50.8039C10.6948 48.36 8.77093 45.4743 7.44444 42.3039C6.04357 39.021 5.33619 35.4841 5.36667 31.915C5.32862 27.2456 6.54875 22.6522 8.89889 18.6172C11.2561 14.6077 14.6232 11.2862 18.6644 8.98387C22.7077 6.64509 27.296 5.41363 31.9669 5.41363C36.6379 5.41363 41.2262 6.64509 45.2694 8.98387C49.2976 11.3123 52.6476 14.6525 54.9878 18.6739C57.3589 22.7118 58.5895 27.3176 58.5483 32C58.5796 36.6901 57.3499 41.3024 54.9878 45.3544V45.3261Z" fill="#222831"/>
<path d="M33.8889 32.7071V15.5749C33.8889 15.074 33.6899 14.5935 33.3356 14.2393C32.9814 13.885 32.501 13.686 32 13.686C31.5106 13.7032 31.0469 13.9097 30.7069 14.2621C30.3668 14.6145 30.1769 15.0852 30.1772 15.5749V32.9999C30.2075 33.0826 30.2297 33.168 30.2433 33.2549C30.2027 33.5255 30.2269 33.8019 30.3139 34.0613C30.4009 34.3207 30.5483 34.5558 30.7439 34.7471L40.5756 44.6071C40.9232 44.923 41.3761 45.0981 41.8458 45.0981C42.3156 45.0981 42.7685 44.923 43.1161 44.6071C43.2913 44.4412 43.4308 44.2413 43.5262 44.0197C43.6216 43.798 43.6707 43.5593 43.6707 43.318C43.6707 43.0767 43.6216 42.8379 43.5262 42.6163C43.4308 42.3946 43.2913 42.1947 43.1161 42.0288L33.8889 32.7071Z" fill="#EC6B08"/>
</svg>
