<svg width="74" height="66" viewBox="0 0 74 66" fill="none" xmlns="http://www.w3.org/2000/svg">
<path d="M8.35555 29.0334H12.4111L12.1889 34.1112C12.1792 34.3359 12.2323 34.5589 12.3422 34.7551C12.4521 34.9514 12.6144 35.1132 12.8111 35.2223C13.0029 35.3414 13.2242 35.4045 13.45 35.4045C13.6758 35.4045 13.8971 35.3414 14.0889 35.2223L23.6667 29.0334H24.8778C24.6184 29.8299 24.4871 30.6625 24.4889 31.5001V48.5556C24.4976 50.6934 25.35 52.7412 26.8606 54.2539C28.3711 55.7666 30.4178 56.6217 32.5556 56.6334H36.0444L43.7556 64.5112C43.8716 64.6287 44.0101 64.7217 44.1628 64.7847C44.3155 64.8477 44.4793 64.8794 44.6444 64.8779C44.7805 64.8775 44.9156 64.8549 45.0444 64.8112C45.2677 64.735 45.4641 64.5959 45.61 64.4105C45.7558 64.2252 45.845 64.0016 45.8667 63.7668L46.5778 56.6334H64.4556C66.5991 56.6305 68.6543 55.7792 70.172 54.2656C71.6898 52.752 72.5468 50.6991 72.5556 48.5556V31.5001C72.5497 29.3547 71.694 27.299 70.176 25.7829C68.6579 24.2669 66.601 23.4141 64.4556 23.4112H41.5111C41.5963 22.987 41.6373 22.555 41.6333 22.1223V8.03342C41.6305 6.21095 40.9091 4.46313 39.6256 3.16926C38.3421 1.87539 36.6002 1.13986 34.7778 1.12231H8.35555C6.52352 1.12525 4.76735 1.85433 3.47191 3.14978C2.17646 4.44523 1.44738 6.20139 1.44444 8.03342V22.1223C1.44738 23.9544 2.17646 25.7105 3.47191 27.006C4.76735 28.3014 6.52352 29.0305 8.35555 29.0334V29.0334ZM64.4556 25.8668C65.9487 25.8697 67.3799 26.4641 68.4357 27.52C69.4915 28.5758 70.086 30.0069 70.0889 31.5001V48.5556C70.0859 50.0478 69.4911 51.4778 68.435 52.5318C67.3789 53.5859 65.9477 54.1779 64.4556 54.1779H45.4778C45.1727 54.1791 44.8789 54.2934 44.6532 54.4986C44.4275 54.7038 44.2858 54.9854 44.2556 55.289L43.6667 60.9001L37.4333 54.5445C37.3207 54.4248 37.1847 54.3295 37.0337 54.2645C36.8827 54.1995 36.7199 54.1662 36.5556 54.1668H32.5556C31.0789 54.1464 29.6692 53.5469 28.6302 52.4975C27.5911 51.448 27.0057 50.0325 27 48.5556V31.5001C27.0028 30.0213 27.5869 28.603 28.6263 27.5511C29.6656 26.4993 31.0769 25.8983 32.5556 25.8779H64.4556V25.8668ZM3.91111 8.08898C3.91111 6.91024 4.37936 5.77978 5.21286 4.94628C6.04635 4.11279 7.17681 3.64454 8.35555 3.64454H34.7778C35.9565 3.64454 37.087 4.11279 37.9205 4.94628C38.754 5.77978 39.2222 6.91024 39.2222 8.08898V22.1223C39.2218 22.5588 39.1582 22.9929 39.0333 23.4112H32.5556C31.3163 23.4094 30.0934 23.6931 28.9815 24.2404C27.8697 24.7876 26.8989 25.5837 26.1444 26.5668H23.2889C23.0518 26.5661 22.8198 26.6357 22.6222 26.7668L14.7778 31.889L14.9444 27.889C14.9547 27.7223 14.9304 27.5554 14.873 27.3986C14.8156 27.2418 14.7265 27.0986 14.6111 26.9779C14.3757 26.7405 14.0565 26.6049 13.7222 26.6001H8.35555C7.17681 26.6001 6.04635 26.1318 5.21286 25.2983C4.37936 24.4648 3.91111 23.3344 3.91111 22.1556V8.08898Z" fill="#222831" stroke="#222831" stroke-miterlimit="10"/>
<path d="M17.9444 12.3888C18.2391 12.3888 18.5217 12.2718 18.7301 12.0634C18.9385 11.855 19.0556 11.5724 19.0556 11.2777C19.0555 10.9335 19.1265 10.593 19.2642 10.2776C19.4019 9.9621 19.6032 9.67845 19.8556 9.4444C20.1067 9.20674 20.4039 9.02302 20.7287 8.90454C21.0536 8.78607 21.3993 8.73535 21.7444 8.75551C22.3539 8.8016 22.9266 9.06457 23.3588 9.49674C23.7909 9.9289 24.0539 10.5016 24.1 11.1111C24.1325 11.571 24.0377 12.031 23.826 12.4406C23.6143 12.8503 23.2939 13.1937 22.9 13.4333C22.1732 13.8722 21.5722 14.4917 21.1556 15.2315C20.7389 15.9714 20.5207 16.8064 20.5222 17.6555C20.5895 17.8863 20.7299 18.089 20.9222 18.2333C21.1146 18.3775 21.3485 18.4555 21.5889 18.4555C21.8293 18.4555 22.0632 18.3775 22.2556 18.2333C22.4479 18.089 22.5882 17.8863 22.6556 17.6555C22.6575 17.1729 22.7831 16.6989 23.0204 16.2788C23.2577 15.8586 23.5988 15.5063 24.0111 15.2555C24.8571 14.74 25.5166 13.9681 25.8937 13.052C26.2708 12.1359 26.3459 11.1234 26.1079 10.1617C25.87 9.2 25.3315 8.33929 24.5707 7.70472C23.8099 7.07015 22.8665 6.69482 21.8778 6.63329C21.2408 6.58765 20.6014 6.67578 20.0005 6.89201C19.3997 7.10824 18.8507 7.44779 18.3889 7.88884C17.9325 8.31698 17.5673 8.83295 17.3152 9.40576C17.0632 9.97857 16.9295 10.5964 16.9222 11.2222C16.9068 11.5115 17.0051 11.7955 17.1961 12.0134C17.387 12.2313 17.6556 12.3661 17.9444 12.3888V12.3888Z" fill="#EC6B08" stroke="#EC6B08" stroke-width="0.5" stroke-miterlimit="10"/>
<path d="M48.5222 43.7221C48.8474 43.7192 49.1582 43.588 49.3871 43.357C49.616 43.126 49.7445 42.814 49.7444 42.4888V32.0666C49.7607 31.8955 49.7411 31.723 49.6868 31.5599C49.6325 31.3969 49.5448 31.247 49.4292 31.1199C49.3136 30.9928 49.1727 30.8912 49.0155 30.8217C48.8584 30.7522 48.6885 30.7163 48.5167 30.7163C48.3448 30.7163 48.1749 30.7522 48.0178 30.8217C47.8606 30.8912 47.7198 30.9928 47.6042 31.1199C47.4886 31.247 47.4008 31.3969 47.3465 31.5599C47.2922 31.723 47.2726 31.8955 47.2889 32.0666V42.4888C47.2889 42.8159 47.4188 43.1296 47.6501 43.3609C47.8814 43.5922 48.1951 43.7221 48.5222 43.7221Z" fill="#EC6B08" stroke="#EC6B08" stroke-width="0.75" stroke-miterlimit="10"/>
<path d="M48.5111 49.2445C49.1923 49.2445 49.7444 48.6923 49.7444 48.0112C49.7444 47.33 49.1923 46.7778 48.5111 46.7778C47.83 46.7778 47.2778 47.33 47.2778 48.0112C47.2778 48.6923 47.83 49.2445 48.5111 49.2445Z" fill="#EC6B08" stroke="#EC6B08" stroke-width="0.75" stroke-miterlimit="10"/>
<path d="M21.5444 22.7222C22.1335 22.7222 22.6111 22.2446 22.6111 21.6555C22.6111 21.0664 22.1335 20.5889 21.5444 20.5889C20.9553 20.5889 20.4778 21.0664 20.4778 21.6555C20.4778 22.2446 20.9553 22.7222 21.5444 22.7222Z" fill="#EC6B08" stroke="#EC6B08" stroke-miterlimit="10"/>
</svg>
