<svg width="65" height="64" viewBox="0 0 65 64" fill="none" xmlns="http://www.w3.org/2000/svg">
<path d="M60.07 24.45H59.14C57.5194 20.3641 54.9035 16.7479 51.53 13.93C51.3023 12.9661 51.2845 11.9646 51.4777 10.9932C51.6709 10.0218 52.0707 9.10336 52.65 8.30001C52.993 7.76818 53.1845 7.15287 53.2039 6.5203C53.2233 5.88773 53.0698 5.26185 52.76 4.71001C52.455 4.15711 52.0076 3.69586 51.4643 3.37409C50.921 3.05231 50.3014 2.88173 49.67 2.88001C49.5235 2.87007 49.3765 2.87007 49.23 2.88001C45.5861 3.19605 42.203 4.90014 39.78 7.64001C38.0572 7.1692 36.2918 6.87107 34.51 6.75001C33.2678 6.6147 32.0195 6.54461 30.77 6.54001C23.0365 6.46237 15.5356 9.18286 9.64999 14.2C6.90231 16.5079 4.68679 19.3832 3.15566 22.6284C1.62453 25.8736 0.81408 29.4119 0.779992 33C0.775969 34.8428 0.994211 36.6794 1.42999 38.47C1.42999 38.47 1.42999 38.55 1.42999 38.58V38.64C1.89733 40.4692 2.56818 42.2402 3.42999 43.92C4.68517 46.7245 6.39483 49.3025 8.48999 51.55C10.4131 53.6202 11.5367 56.3071 11.66 59.13V59.91C11.6496 60.0431 11.6496 60.1769 11.66 60.31C11.7771 61.1142 12.1783 61.8498 12.791 62.3836C13.4037 62.9174 14.1874 63.2142 15 63.22H24.77C25.2134 63.2213 25.6527 63.1351 26.0627 62.9664C26.4727 62.7976 26.8454 62.5496 27.1594 62.2365C27.4734 61.9234 27.7225 61.5515 27.8925 61.142C28.0625 60.7325 28.15 60.2934 28.15 59.85V59.4C29.5477 59.5018 30.9503 59.5185 32.35 59.45V59.85C32.35 60.7438 32.705 61.601 33.337 62.233C33.969 62.865 34.8262 63.22 35.72 63.22H45.5C46.3938 63.22 47.2509 62.865 47.8829 62.233C48.5149 61.601 48.87 60.7438 48.87 59.85V57.46C48.9448 56.4133 49.2264 55.3919 49.6984 54.4547C50.1705 53.5176 50.8236 52.6832 51.62 52C51.73 51.89 51.87 51.79 51.98 51.68C52.019 51.6606 52.0506 51.629 52.07 51.59C55.2772 48.7683 57.7398 45.1998 59.24 41.2H60C61.2571 41.2 62.4628 40.7006 63.3517 39.8117C64.2406 38.9228 64.74 37.7171 64.74 36.46V29.16C64.7426 28.5407 64.6226 27.9271 64.3869 27.3544C64.1511 26.7818 63.8043 26.2615 63.3664 25.8236C62.9285 25.3857 62.4082 25.0389 61.8356 24.8032C61.2629 24.5674 60.6493 24.4474 60.03 24.45H60.07ZM61.26 36.45C61.2613 36.6071 61.2315 36.7629 61.1723 36.9085C61.1131 37.054 61.0256 37.1864 60.915 37.2979C60.8044 37.4095 60.6727 37.4981 60.5277 37.5585C60.3827 37.6189 60.2271 37.65 60.07 37.65H58C57.623 37.6498 57.2557 37.7699 56.9517 37.9929C56.6477 38.216 56.4229 38.5303 56.31 38.89C55.0754 42.7999 52.7927 46.2966 49.71 49L49.36 49.31C48.2103 50.3156 47.2744 51.5419 46.6079 52.9162C45.9414 54.2904 45.5578 55.7846 45.48 57.31V59.6H35.94V57.55C35.9382 57.3038 35.8854 57.0607 35.7849 56.836C35.6844 56.6113 35.5384 56.4099 35.356 56.2445C35.1737 56.0791 34.9591 55.9533 34.7257 55.8751C34.4923 55.7968 34.2452 55.7679 34 55.79C32.9306 55.9062 31.8556 55.963 30.78 55.96C29.4085 55.9624 28.0385 55.8688 26.68 55.68C26.4288 55.6505 26.1741 55.6725 25.9317 55.7447C25.6893 55.8169 25.4641 55.9378 25.27 56.1C25.0824 56.2695 24.9322 56.4761 24.8289 56.7068C24.7256 56.9375 24.6715 57.1872 24.67 57.44V59.69H15.22V59C15.059 55.2986 13.58 51.7766 11.05 49.07C9.21863 47.1062 7.73115 44.8479 6.64999 42.39C6.64999 42.39 6.64999 42.39 6.64999 42.32C5.90506 40.8796 5.33437 39.3555 4.94999 37.78C4.56331 36.2155 4.35862 34.6115 4.33999 33C4.33999 20.36 16.2 10.09 30.79 10.09C31.9191 10.0896 33.0473 10.1497 34.17 10.27H34.25C36.0579 10.3518 37.8424 10.7127 39.54 11.34C39.9275 11.5467 40.3778 11.6029 40.8042 11.4977C41.2306 11.3924 41.6031 11.1333 41.85 10.77C43 9.13001 45.28 7.00001 49.66 6.45001C48.8091 7.68316 48.233 9.08472 47.9708 10.5598C47.7085 12.0349 47.7662 13.5491 48.14 15C48.1491 15.2549 48.2117 15.505 48.3237 15.7341C48.4356 15.9632 48.5945 16.1662 48.79 16.33C52.2323 19.0356 54.8137 22.6837 56.22 26.83C56.3456 27.1742 56.5743 27.4713 56.875 27.6807C57.1756 27.8901 57.5336 28.0016 57.9 28H60.08C60.2371 27.9987 60.3929 28.0285 60.5385 28.0877C60.684 28.1469 60.8164 28.2344 60.9279 28.345C61.0395 28.4556 61.128 28.5873 61.1885 28.7323C61.2489 28.8773 61.28 29.0329 61.28 29.19V36.46L61.26 36.45Z" fill="#222831" stroke="#222831" stroke-width="0.5" stroke-miterlimit="10"/>
<path d="M33.2579 39.9856H29.0178V43H25.6995V39.9856H23V37.3365H25.6995V35.9402H23V33.2912H25.6995V24H33.0341C35.1498 24 36.8397 24.5481 38.1038 25.6442C39.3679 26.7317 40 28.1802 40 29.9897C40 31.834 39.3987 33.2825 38.196 34.3352C36.9933 35.3791 35.3209 35.9141 33.1789 35.9402H29.0178V37.3365H33.2579V39.9856ZM29.0178 33.2912H32.9814C34.1753 33.2912 35.0883 33.0172 35.7204 32.4691C36.3524 31.921 36.6685 31.1033 36.6685 30.0158C36.6685 29.0414 36.3568 28.2454 35.7335 27.6277C35.119 27.0101 34.2675 26.6882 33.1789 26.6621H29.0178V33.2912Z" fill="#EC6B08"/>
</svg>
