<svg width="160" height="16" viewBox="0 0 160 16" fill="none" xmlns="http://www.w3.org/2000/svg">
<path d="M16.376 3.352H24.134V13H21.398V5.692H18.95C18.95 6.964 18.902 8.038 18.806 8.914C18.71 9.79 18.578 10.504 18.41 11.056C18.242 11.608 18.008 12.034 17.708 12.334C17.408 12.634 17.084 12.838 16.736 12.946C16.388 13.054 15.956 13.108 15.44 13.108C14.948 13.108 14.486 13.054 14.054 12.946L14.234 10.732C14.45 10.768 14.642 10.786 14.81 10.786C15.098 10.786 15.326 10.72 15.494 10.588C15.662 10.444 15.818 10.132 15.962 9.652C16.118 9.16 16.226 8.41 16.286 7.402C16.346 6.382 16.376 5.032 16.376 3.352Z" fill="#222831"/>
<path d="M26.2195 13V3.352H28.9555V6.538H30.9355C32.0995 6.538 33.0295 6.808 33.7255 7.348C34.4335 7.888 34.7875 8.68 34.7875 9.724C34.7875 10.744 34.4575 11.548 33.7975 12.136C33.1495 12.712 32.2435 13 31.0795 13H26.2195ZM30.6655 8.608H28.9555V10.84H30.6835C31.5835 10.84 32.0335 10.456 32.0335 9.688C32.0335 9.352 31.9135 9.088 31.6735 8.896C31.4455 8.704 31.1095 8.608 30.6655 8.608Z" fill="#222831"/>
<path d="M44.552 3.352V13H41.816V9.904H40.34L38.306 13H35.138L37.604 9.454C36.26 8.938 35.588 7.978 35.588 6.574C35.588 5.59 35.93 4.81 36.614 4.234C37.298 3.646 38.258 3.352 39.494 3.352H44.552ZM39.962 7.924H41.816V5.494H39.944C39.44 5.494 39.05 5.602 38.774 5.818C38.498 6.022 38.36 6.322 38.36 6.718C38.36 7.102 38.498 7.402 38.774 7.618C39.062 7.822 39.458 7.924 39.962 7.924Z" fill="#222831"/>
<path d="M55.484 3.352V13H52.748V9.31H49.382V13H46.646V3.352H49.382V7.06H52.748V3.352H55.484Z" fill="#222831"/>
<path d="M62.1251 13.216C60.6851 13.216 59.4851 12.73 58.5251 11.758C57.5771 10.786 57.1031 9.598 57.1031 8.194C57.1031 6.802 57.5831 5.62 58.5431 4.648C59.5031 3.664 60.7091 3.172 62.1611 3.172C63.7091 3.172 64.9871 3.736 65.9951 4.864L64.3931 6.484C63.7211 5.848 62.9711 5.53 62.1431 5.53C61.4711 5.53 60.9131 5.788 60.4691 6.304C60.0251 6.82 59.8031 7.45 59.8031 8.194C59.8031 8.95 60.0251 9.586 60.4691 10.102C60.9251 10.606 61.5191 10.858 62.2511 10.858C63.0071 10.858 63.7451 10.516 64.4651 9.832L66.0671 11.452C65.5391 12.028 64.9751 12.466 64.3751 12.766C63.7751 13.066 63.0251 13.216 62.1251 13.216Z" fill="#222831"/>
<path d="M72.8188 13V0.399998H75.8068L79.1188 5.728L82.4308 0.399998H85.4188V13H82.6648V4.774L79.1188 10.156H79.0468L75.5368 4.828V13H72.8188Z" fill="#222831"/>
<path d="M90.5338 13.18C89.5858 13.18 88.7938 12.916 88.1578 12.388C87.5338 11.86 87.2218 11.128 87.2218 10.192C87.2218 9.172 87.5698 8.404 88.2658 7.888C88.9738 7.372 89.9218 7.114 91.1098 7.114C91.9138 7.114 92.6998 7.246 93.4678 7.51V7.348C93.4678 6.172 92.7777 5.584 91.3978 5.584C90.5697 5.584 89.6818 5.758 88.7338 6.106L88.0498 4.018C89.2258 3.502 90.4738 3.244 91.7938 3.244C93.2458 3.244 94.3318 3.604 95.0518 4.324C95.7478 5.02 96.0958 6.046 96.0958 7.402V13H93.4498V11.956C92.7178 12.772 91.7458 13.18 90.5338 13.18ZM91.3618 11.29C91.9978 11.29 92.5137 11.134 92.9098 10.822C93.3058 10.498 93.5038 10.09 93.5038 9.598V9.112C92.9878 8.872 92.4058 8.752 91.7578 8.752C91.1578 8.752 90.6898 8.872 90.3538 9.112C90.0298 9.34 89.8678 9.676 89.8678 10.12C89.8678 10.48 90.0058 10.768 90.2818 10.984C90.5578 11.188 90.9178 11.29 91.3618 11.29Z" fill="#222831"/>
<path d="M102.644 13.216C101.204 13.216 100.004 12.73 99.0441 11.758C98.0961 10.786 97.6221 9.598 97.6221 8.194C97.6221 6.802 98.1021 5.62 99.0621 4.648C100.022 3.664 101.228 3.172 102.68 3.172C104.228 3.172 105.506 3.736 106.514 4.864L104.912 6.484C104.24 5.848 103.49 5.53 102.662 5.53C101.99 5.53 101.432 5.788 100.988 6.304C100.544 6.82 100.322 7.45 100.322 8.194C100.322 8.95 100.544 9.586 100.988 10.102C101.444 10.606 102.038 10.858 102.77 10.858C103.526 10.858 104.264 10.516 104.984 9.832L106.586 11.452C106.058 12.028 105.494 12.466 104.894 12.766C104.294 13.066 103.544 13.216 102.644 13.216Z" fill="#222831"/>
<path d="M115.555 3.352V5.692H112.693V13H109.921V5.692H107.059V3.352H115.555Z" fill="#222831"/>
<path d="M121.26 13.216C119.796 13.216 118.59 12.754 117.642 11.83C116.694 10.894 116.22 9.682 116.22 8.194C116.22 6.79 116.67 5.602 117.57 4.63C118.47 3.658 119.61 3.172 120.99 3.172C122.514 3.172 123.678 3.676 124.482 4.684C125.286 5.692 125.688 6.934 125.688 8.41C125.688 8.554 125.676 8.794 125.652 9.13H118.938C119.07 9.742 119.34 10.21 119.748 10.534C120.156 10.858 120.672 11.02 121.296 11.02C122.148 11.02 122.928 10.69 123.636 10.03L125.202 11.416C124.23 12.616 122.916 13.216 121.26 13.216ZM118.902 7.42H123.024C122.94 6.796 122.718 6.298 122.358 5.926C122.01 5.554 121.554 5.368 120.99 5.368C120.438 5.368 119.976 5.554 119.604 5.926C119.244 6.286 119.01 6.784 118.902 7.42Z" fill="#222831"/>
<path d="M127.368 15.88V3.352H130.104V4.738C130.872 3.694 131.874 3.172 133.11 3.172C134.31 3.172 135.342 3.622 136.206 4.522C137.07 5.422 137.502 6.646 137.502 8.194C137.502 9.73 137.07 10.948 136.206 11.848C135.354 12.736 134.322 13.18 133.11 13.18C131.91 13.18 130.908 12.7 130.104 11.74V15.88H127.368ZM130.734 10.12C131.19 10.612 131.748 10.858 132.408 10.858C133.068 10.858 133.626 10.612 134.082 10.12C134.538 9.616 134.766 8.962 134.766 8.158C134.766 7.378 134.538 6.742 134.082 6.25C133.626 5.746 133.068 5.494 132.408 5.494C131.748 5.494 131.19 5.746 130.734 6.25C130.29 6.742 130.068 7.39 130.068 8.194C130.068 8.974 130.29 9.616 130.734 10.12Z" fill="#222831"/>
<path d="M147.614 11.758C146.618 12.73 145.376 13.216 143.888 13.216C142.4 13.216 141.158 12.736 140.162 11.776C139.178 10.804 138.686 9.61 138.686 8.194C138.686 6.79 139.184 5.602 140.18 4.63C141.188 3.658 142.436 3.172 143.924 3.172C145.412 3.172 146.648 3.658 147.632 4.63C148.628 5.59 149.126 6.778 149.126 8.194C149.126 9.598 148.622 10.786 147.614 11.758ZM143.924 10.858C144.68 10.858 145.286 10.606 145.742 10.102C146.198 9.586 146.426 8.95 146.426 8.194C146.426 7.462 146.186 6.838 145.706 6.322C145.238 5.794 144.632 5.53 143.888 5.53C143.132 5.53 142.526 5.788 142.07 6.304C141.614 6.808 141.386 7.438 141.386 8.194C141.386 8.926 141.62 9.556 142.088 10.084C142.568 10.6 143.18 10.858 143.924 10.858Z" fill="#222831"/>
<path d="M150.747 3.352H156.039C157.023 3.352 157.803 3.568 158.379 4C158.967 4.432 159.261 5.02 159.261 5.764C159.261 6.772 158.751 7.498 157.731 7.942C158.991 8.326 159.621 9.136 159.621 10.372C159.621 11.188 159.297 11.83 158.649 12.298C158.013 12.766 157.137 13 156.021 13H150.747V3.352ZM153.447 7.222H155.373C155.745 7.222 156.027 7.132 156.219 6.952C156.423 6.772 156.525 6.538 156.525 6.25C156.525 5.998 156.429 5.788 156.237 5.62C156.057 5.452 155.781 5.368 155.409 5.368H153.447V7.222ZM153.447 10.858H155.607C156.435 10.858 156.849 10.534 156.849 9.886C156.849 9.262 156.411 8.95 155.535 8.95H153.447V10.858Z" fill="#222831"/>
<path d="M0.431999 13L5.832 0.309998H8.388L13.788 13H10.89L9.738 10.174H4.41L3.258 13H0.431999ZM5.4 7.726H8.748L7.074 3.64L5.4 7.726Z" fill="#EC6B08"/>
</svg>
